<svg xmlns="http://www.w3.org/2000/svg" width="240.175" height="28.923" viewBox="0 0 3496 421">
  <defs>
    <style>
      .cls-1 {
        fill: #facc15;
      }

      .cls-1, .cls-2 {
        fill-rule: evenodd;
      }

      .cls-2 {
        fill: #247ffb;
      }
    </style>
  </defs>
  <path id="yellow" class="cls-1" d="M1812,91c20.39-.579,26.76,4.31,32,19,1.44,4.04,1.76,14.134-1,17-0.96,4.092-3.52,5.521-6,8l-3,4h-2v1c-2.79,1.531-12.7,4.633-18,3v-1h-4v-1l-4-1v-1h-2c-0.67-1-1.33-2-2-3h-2c-0.33-1-.67-2-1-3l-3-2v-2h-1v-2h-1q-1.005-6.5-2-13h1v-5h1c0.33-1.666.67-3.334,1-5,0.67-.333,1.33-0.667,2-1v-2c0.67-.333,1.33-0.667,2-1l3-4h2c0.33-.667.67-1.333,1-2h2V93l5-1V91ZM1,105H51V213h3l3-4h1v-2l3-2v-2l3-2v-2l4-3,1-3,2-1v-2l4-3v-2l2-1,1-3,4-3v-2l3-2v-2l4-3v-2l3-2v-2l3-2v-2l4-3v-2l2-1q0.5-1.5,1-3l4-3v-2l2-1q0.5-1.5,1-3l4-3v-2l3-2v-2l4-3v-2l3-2v-2l3-2v-2l4-3q0.5-1.5,1-3l2-1v-2h1c1.44-1.749,2.278-2.414,3-5h60v1c-1.326,1.1-1.84,2.743-3,4l-2,1v2l-4,3v2l-3,2v2l-4,3v2l-4,3v2l-2,1q-0.5,1.5-1,3l-4,3v2l-4,3v2l-3,2v2l-2,1v1l-2,1v2l-4,3v2l-4,3v2l-2,1q-0.5,1.5-1,3l-4,3v2l-4,3v2l-3,2v2l-4,3q-0.5,1.5-1,3l-3,2q-0.5,1.5-1,3l-2,1v2l-4,3v2l-4,3q-0.5,1.5-1,3c-1.017,1.144-6.624,5.9-6,8h1a18.818,18.818,0,0,0,3,7l2,1v2l2,1v2l2,1q0.5,1.5,1,3h1q0.5,2,1,4l2,1v2h1q0.5,1.5,1,3l2,1v2l2,1v2l2,1q0.5,2,1,4l2,1v2l2,1v2l2,1v2l2,1q0.5,2,1,4l2,1v2h1l1,3,2,1v2l2,1,1,3h1q0.5,2,1,4l2,1v2h1l1,3,2,1v2l2,1,1,3h1q0.5,2,1,4l2,1v2l2,1v2l2,1v2l2,1q0.5,2,1,4l2,1v2h1l1,3,2,1v2l2,1,1,3h1q0.5,2,1,4h1l1,3,2,1v2c2.842,4.262,6.59,6.92,8,13H139l-6-11-2-1q-0.5-2-1-4l-2-1v-2l-2-1v-2l-2-1q-0.5-2-1-4l-2-1v-2l-2-1q-0.5-2-1-4h-1l-1-3-2-1v-2l-2-1q-0.5-2-1-4h-1l-1-3-2-1q-0.5-2-1-4l-2-1v-2l-2-1-1-3h-1l-1-4-2-1v-2l-2-1v-2l-2-1-1-4-2-1v-2l-2-1-1-4-2-1v-2l-2-1v-2l-2-1-1-4-2-1v-2H77l-1-3H74l-1,3-3,2v2l-4,3v2l-3,2v2l-4,3v2l-4,3c-1.618,2.261-1.924,4.294-4,6v70c-4.088,1.5-11.357,1-17,1H2c-2.124-5.837-1-16.458-1-24V105Zm770,0h49V352H772c-2.124-5.837-1-16.458-1-24V105Zm645,0h49V236h3c1.33-2,2.67-4,4-6,0.67-.333,1.33-0.667,2-1v-2c1.33-1,2.67-2,4-3v-2c1.33-1,2.67-2,4-3v-2c1.33-1,2.67-2,4-3v-2c1.33-1,2.67-2,4-3v-2c1.33-1,2.67-2,4-3v-2c1.33-1,2.67-2,4-3v-2c1.33-1,2.67-2,4-3v-2c1.33-1,2.67-2,4-3v-2c1.33-1,2.67-2,4-3v-2c1.33-1,2.67-2,4-3v-2c0.67-.333,1.33-0.667,2-1v-1c0.67-.333,1.33-0.667,2-1v-2h1c1.44-1.746,2.28-2.415,3-5,16.59-2.96,38.64-1.013,57-1a7.831,7.831,0,0,1-2,4h-1v2h-1c-0.67,1-1.33,2-2,3-0.67.333-1.33,0.667-2,1v2c-1.33,1-2.67,2-4,3v2c-1.33,1-2.67,2-4,3v2c-1.67,1.333-3.33,2.667-5,4v2c-0.67.333-1.33,0.667-2,1v1c-0.67.333-1.33,0.667-2,1v2c-1.67,1.333-3.33,2.667-5,4v2c-1.33,1-2.67,2-4,3v2c-1.33,1-2.67,2-4,3v2c-1.67,1.333-3.33,2.667-5,4v2c-1.33,1-2.67,2-4,3v2c-1.33,1-2.67,2-4,3v2c-1.33,1-2.67,2-4,3-0.33,1-.67,2-1,3-0.67.333-1.33,0.667-2,1v1c-0.67.333-1.33,0.667-2,1v2c-2.08,2.915-3.2.477-4,6,3.33,2.867,4.49,7.235,7,11,0.67,0.333,1.33.667,2,1,0.33,1,.67,2,1,3h1c0.33,1.333.67,2.667,1,4,0.67,0.333,1.33.667,2,1v2c0.67,0.333,1.33.667,2,1v2c0.67,0.333,1.33.667,2,1v2c0.67,0.333,1.33.667,2,1v2c0.67,0.333,1.33.667,2,1v2c0.67,0.333,1.33.667,2,1v2c0.67,0.333,1.33.667,2,1v2c0.67,0.333,1.33.667,2,1,0.33,1.333.67,2.667,1,4h1c0.33,1,.67,2,1,3,0.67,0.333,1.33.667,2,1v2c0.67,0.333,1.33.667,2,1v2h1c0.33,1,.67,2,1,3,0.67,0.333,1.33.667,2,1v2c0.67,0.333,1.33.667,2,1,0.33,1,.67,2,1,3h1c0.33,1.333.67,2.667,1,4h1c0.33,1,.67,2,1,3,0.67,0.333,1.33.667,2,1v2c0.67,0.333,1.33.667,2,1v2c0.67,0.333,1.33.667,2,1v2c0.67,0.333,1.33.667,2,1v2c0.67,0.333,1.33.667,2,1v2c0.67,0.333,1.33.667,2,1v2c0.67,0.333,1.33.667,2,1,0.33,1.333.67,2.667,1,4,0.67,0.333,1.33.667,2,1v2c0.67,0.333,1.33.667,2,1v2h1c0.93,1.367.68,1.763,1,4h-56c-0.67-1.276-1.58-1.366-2-2v-2c-0.67-.333-1.33-0.667-2-1v-2c-0.67-.333-1.33-0.667-2-1v-2c-0.67-.333-1.33-0.667-2-1v-2c-0.67-.333-1.33-0.667-2-1-0.33-1.333-.67-2.667-1-4h-1c-0.33-1-.67-2-1-3-0.67-.333-1.33-0.667-2-1v-2c-0.67-.333-1.33-0.667-2-1-0.33-1.333-.67-2.667-1-4-0.67-.333-1.33-0.667-2-1v-2c-0.67-.333-1.33-0.667-2-1v-2c-0.67-.333-1.33-0.667-2-1v-2c-0.67-.333-1.33-0.667-2-1-0.33-1.333-.67-2.667-1-4-0.67-.333-1.33-0.667-2-1v-2c-0.67-.333-1.33-0.667-2-1v-2c-0.67-.333-1.33-0.667-2-1v-2c-0.67-.333-1.33-0.667-2-1-0.33-1.333-.67-2.667-1-4-0.67-.333-1.33-0.667-2-1v-2c-0.67-.333-1.33-0.667-2-1v-2c-0.67-.333-1.33-0.667-2-1v-2c-0.67-.333-1.33-0.667-2-1-0.33-1.333-.67-2.667-1-4-0.67-.333-1.33-0.667-2-1-0.33-1-.67-2-1-3-1.65,1.336-2.55,3.457-4,5-0.67.333-1.33,0.667-2,1v2c-1.67,1.333-3.33,2.667-5,4v2c-0.67.333-1.33,0.667-2,1v59c-4.09,1.5-11.36,1-17,1h-32V105ZM277,164c10.564-.113,22.127-0.389,30,2h5v1h4v1l6,1v1l5,1v1l4,1v1h2l1,2h2v1l3,1,1,2h2l8,9,6,5v2l2,1,1,3h1v2l2,1v2h1v2h1v2h1v2h1l1,4h1l3,13c3.481,10.459,4,20.616,4,35v13h-1v6h-1v5h-1v4h-1v4h-1v3h-1v3h-1v3h-1l-2,6h-1v2h-1l-1,4-2,1-1,4-3,2v2l-10,9-4,5h-2l-1,2-3,1v1h-2l-1,2h-2v1l-4,1v1h-3v1h-2v1l-21,5H289c-14.024,0-23.334-2.113-33-6h-3v-1l-6-2v-1l-4-1-1-2h-2l-1-2h-2l-3-4h-2l-6-7-2-1v-2l-4-3v-2l-2-1v-2l-2-1v-2h-1v-2h-1v-2h-1v-2h-1q-0.5-2-1-4h-1v-3h-1v-3h-1v-3h-1v-3h-1q-0.5-4-1-8h-1v-6c-1.24-4.309-3.736-22.833-2-29h1V240h1v-6h1q0.5-4,1-8h1v-3h1v-3h1v-3h1v-3h1q0.5-2,1-4h1q1-3,2-6l2-1v-2h1v-2l3-2v-2l3-2v-2l2-1,6-7h2l3-4h2q0.5-1,1-2h2q0.5-1,1-2l4-1v-1l6-2v-1h3v-1h3v-1h3v-1h4v-1h4v-1h7v-1Zm351,59-45-4c0.262-6.358,3.042-10.583,5-15q0.5-2.5,1-5h1q0.5-1.5,1-3l2-1v-2l2-1v-2l4-3,6-7h2l2-3h2q0.5-1,1-2l4-1v-1l6-2v-1l9-2v-1l9-1v-1h7v-1h12c13.875,0,24.429,2.218,34,6l6,1v1l4,1v1h2q0.5,1,1,2h2v1l3,1q0.5,1,1,2h2l6,7,2,1v2l2,1q0.5,1.5,1,3h1v2h1q1,3,2,6h1q0.5,3,1,6h1v4h1c3,9.792,1,31.817,1,44v95c-3.844,1.413-10.623,1-16,1H688c-2.325-6.277-1.052-17.965-1-26h-1v1c-2.123,1.867-2.319,4.614-4,7l-4,3v2l-2,1v1h-2l-3,4h-2q-0.5,1-1,2h-2v1l-6,2v1l-6,1v1h-4v1h-6v1c-6,1.7-21.181-.77-25-2l-13-3v-1h-2v-1h-2q-0.5-1-1-2l-4-1-3-4h-2v-1l-3-2v-2l-4-3q-0.5-2-1-4l-2-1v-2h-1v-3h-1v-3h-1v-3h-1v-4h-1v-9h-1q0.5-8.5,1-17h1v-5h1v-3h1v-2h1v-3h1v-2l2-1v-2l2-1v-2l6-5,2-3h2l2-3,4-1v-1l6-2v-1h3v-1h2v-1h4v-1h3v-1h4v-1h5v-1h6v-1h8v-1h9v-1h8v-1h7v-1h5v-1h3v-1h3c3.68-1.7,9.187-8.641,7-16h-1v-5h-1a11.264,11.264,0,0,0-2-5h-1c-4.654-6.841-10.349-9.01-22-9h-8C639.773,205.166,630.216,211.919,628,223Zm392,49H900c0.078,21.755,10.192,36.9,26,43l14,1h10c10.119-3.124,20.795-10.071,23-21l46,3c-4.12,23.252-21.07,41.606-40,50h-3v1h-2v1l-6,1v1h-4c-8.657,2.806-26.242,5.082-37,2h-7v-1h-5v-1h-4v-1h-3v-1h-3v-1h-2v-1h-3v-1l-4-1v-1l-4-1q-0.5-1-1-2h-2q-0.5-1-1-2h-2l-3-4h-2l-6-7-2-1v-2l-3-2v-2l-3-2q-0.5-2-1-4l-2-1v-2h-1q-0.5-2-1-4h-1v-3h-1v-2h-1v-3h-1v-3h-1v-3h-1v-3h-1q-0.5-5-1-10h-1v-8c-0.994-3.567-2.383-24.147-1-29h1v-7h1v-5h1v-4h1v-4h1v-3h1v-3h1v-3c6.3-14.558,14.733-26.308,27-35l2-3h2q0.5-1,1-2l4-1q0.5-1,1-2h2v-1h2v-1h3v-1h2v-1h3v-1h3v-1h4v-1h4v-1h7v-1c6.572-1.844,24.735.635,29,2h4v1h4v1l6,1v1l5,1v1l4,1v1h2q0.5,1,1,2h2q0.5,1,1,2h2l2,3h2l7,8,3,2v2l3,2v2c0.67,0.333,1.33.667,2,1v2c0.67,0.333,1.33.667,2,1,0.33,1.333.67,2.667,1,4h1c0.67,2,1.33,4,2,6h1c0.33,2,.67,4,1,6C1019.23,232.869,1020.05,249.428,1020,272Zm316-50c-0.98-12.443-13.29-20.952-27-21h-11v1h-3v1h-3v1h-2v1h-2q-3.495,4-7,8v11h1c0.33,1.333.67,2.667,1,4q4.005,3,8,6h3v1h3v1h3v1l9,1v1l10,1v1h5v1l9,1v1h4v1h4v1h4v1l6,1v1h2v1l9,3v1l3,1c0.33,0.667.67,1.333,1,2h2l3,4,3,1v2c1.33,1,2.67,2,4,3v2c0.67,0.333,1.33.667,2,1,0.33,1.333.67,2.667,1,4h1q1.005,5,2,10h1v15q-1.005,6.5-2,13h-1v3h-1v2h-1c-0.67,2-1.33,4-2,6-0.67.333-1.33,0.667-2,1v2c-1.33,1-2.67,2-4,3v2c-0.67.333-1.33,0.667-2,1l-3,4h-2l-3,4h-2c-0.33.667-.67,1.333-1,2l-4,1c-0.33.667-.67,1.333-1,2h-2v1h-2v1h-3v1h-2v1h-3v1h-3v1h-3v1l-9,1c-7.59,2.257-25.27,3.5-34,1h-7v-1h-5v-1h-4v-1h-4v-1h-3v-1h-3v-1l-4-1v-1h-2v-1h-2v-1h-2v-1h-2c-0.33-.667-0.67-1.333-1-2h-2l-3-4h-2c-1.33-1.666-2.67-3.334-4-5-0.67-.333-1.33-0.667-2-1v-2c-1.33-1-2.67-2-4-3-0.33-1.333-.67-2.667-1-4-0.67-.333-1.33-0.667-2-1-3.2-5.139-5.77-16.018-7-23,4.54-1.689,12.85-1.05,19-1,1.81-1.606,6.64-.992,10-1l19-1c1.5,3.978,2.65,8.688,5,12,1.33,1,2.67,2,4,3,0.33,0.667.67,1.333,1,2h2c0.33,0.667.67,1.333,1,2l5,1c13.75,5.429,33.73,3.01,40-8,1.59-1.661,3.49-8.851,2-13h-1c-0.33-1.333-.67-2.667-1-4h-1c-0.33-.667-0.67-1.333-1-2h-2c-0.33-.667-0.67-1.333-1-2h-2v-1l-4-1v-1h-3v-1h-4v-1h-4v-1h-5c-5.73-1.778-13.33-3.245-19-5h-5v-1h-4v-1h-4v-1h-3v-1h-3v-1h-3v-1l-6-2v-1l-4-1c-0.33-.667-0.67-1.333-1-2h-2c-0.67-1-1.33-2-2-3h-2c-1.33-1.666-2.67-3.334-4-5-0.67-.333-1.33-0.667-2-1v-2l-3-2v-2h-1c-0.67-2-1.33-4-2-6h-1v-3c-2.64-6.67-4.67-18.135-2-27v-5c8.03-23.77,23.88-33.41,48-41h5c7.5-2.225,24.45-3.427,33-1h8v1h5v1h4v1l6,1v1h2v1l9,3v1l3,1c0.33,0.667.67,1.333,1,2h2l6,7c1.67,1.333,3.33,2.667,5,4v2c0.67,0.333,1.33.667,2,1v2c0.67,0.333,1.33.667,2,1l3,9h1v2h1q1.005,6.5,2,13c-3.81,1.422-10.65,1.048-16,1-1.83,1.624-6.63.956-10,1ZM475,298h2l36-132h34c5.909,0,13.67-.594,18,1L503,352H449l-5-12v-3h-1q-0.5-3-1-6h-1q-1-5-2-10c-13.83-34.771-22.922-73.37-37-108q-1-4.5-2-9h-1q-0.5-3-1-6h-1q-0.5-3-1-6h-1v-3h-1v-3h-1v-3h-1v-3h-1v-3h-1c-1.47-3.637-1.116-7.022-3-10h1c2.17-1.916,9.123-1,13-1h37l1,3h1q0.5,3.5,1,7h1v4h1v4h1v3h1q0.5,3.5,1,7h1q0.5,4,1,8c5.665,15.722,9.381,34.295,15,50q0.5,4,1,8h1Zm558-132h51l6,23h1c0.33,2.666.67,5.334,1,8h1q1.005,5.5,2,11h1v3h1c0.33,2.333.67,4.667,1,7h1c0.33,2.666.67,5.334,1,8,3.58,9.91,6.44,22.084,10,32,0.33,2.666.67,5.334,1,8h1v3h1c0.33,2.333.67,4.667,1,7h1c0.33,2.666.67,5.334,1,8h1l3,14,3-1,3-14h1c0.33-2.666.67-5.334,1-8h1v-3h1c0.33-2.333.67-4.667,1-7h1q1.995-9.5,4-19c4.87-13.454,8.15-29.508,13-43,0.33-2.666.67-5.334,1-8h1c0.33-2.333.67-4.667,1-7h1q1.005-5.5,2-11h1q1.005-5,2-10h1c2.29-2.022,9.95-1,14-1h37q-30.495,92.991-61,186h-55q-22.995-69.993-46-140h-1c-0.33-2-.67-4-1-6h-1v-3h-1v-3h-1v-3h-1v-3h-1v-3h-1c-0.33-2-.67-4-1-6C1036.77,179.377,1033.46,173.267,1033,166Zm559,0h51c0.84,1.135-.13.145,1,1l3,15h1v4h1v4h1v3h1v4h1c0.33,2.666.67,5.334,1,8,4.97,13.729,8.07,30.295,13,44q1.005,6,2,12h1v3h1v4h1v4h1c0.33,2.333.67,4.667,1,7h1c0.33,2.666.67,5.334,1,8,1.58,4.634,3.61,8.969,4,15l3-1q1.005-5.5,2-11h1c0.33-2.666.67-5.334,1-8h1v-4h1v-3h1q1.005-5.5,2-11h1q1.995-9.5,4-19c4.79-13.881,8.05-30.205,13-44,0.33-2.666.67-5.334,1-8h1v-3h1q1.005-5.5,2-11h1v-4h1c1.08-3.164-.06-5.847,2-8,2.29-2.022,9.95-1,14-1h37c-0.09,6.39-3.1,11.28-5,16-0.33,2-.67,4-1,6h-1c-0.67,3-1.33,6-2,9-3.79,9.422-7.22,20.577-11,30v3h-1v3h-1v3h-1v3h-1v3h-1v3h-1v3h-1c-0.33,2-.67,4-1,6-12.37,30.888-20.66,65.1-33,96-0.33,2-.67,4-1,6h-1v3h-1v3h-1v3h-1v3h-1v3h-1v3h-1v3h-1v2h-1l-3,9c-0.67.333-1.33,0.667-2,1-0.33,1.333-.67,2.667-1,4-0.67.333-1.33,0.667-2,1v2c-1.33,1-2.67,2-4,3v2c-1.67,1.333-3.33,2.667-5,4-0.33.667-.67,1.333-1,2h-2c-0.67,1-1.33,2-2,3h-2c-0.33.667-.67,1.333-1,2h-2v1l-6,2v1h-3v1h-2v1l-9,1v1h-7v1h-16v-1l-13-1c-3.1-1-6.03-2.574-10-3q5.505-19.5,11-39c4.54,0.884,15.02,4.921,21,3,2.22-.713,4.21-2.388,7-3l3-4h1c0.33-1.333.67-2.667,1-4,0.67-.333,1.33-0.667,2-1v-3h1v-2h1v-3h1v-3h1c0.11-.766-2.73-6.321-3-7v-3h-1v-3h-1c-0.67-3-1.33-6-2-9h-1v-3h-1v-3h-1v-3h-1v-3h-1v-3h-1c-0.33-2-.67-4-1-6h-1c-0.33-2-.67-4-1-6h-1v-3h-1v-3h-1v-3h-1v-3h-1v-3c-7.01-17.591-12.05-37.526-19-55v-3h-1v-3h-1v-3h-1v-3h-1v-3h-1v-3h-1v-3h-1v-3h-1v-3h-1v-3h-1c-0.33-2-.67-4-1-6h-1c-0.33-2-.67-4-1-6h-1c-0.67-3-1.33-6-2-9h-1Q1595,176.5,1592,166Zm251,0V352h-48c-1.67-4.587-1-12.814-1-19V167c4.09-1.5,11.36-1,17-1h32ZM311,307c0.728-2.591,1.561-3.241,3-5h1v-2l2-1v-2h1l1-4h1v-3h1v-2h1q0.5-4,1-8h1q0.5-10,1-20c0-12.226-.646-20.621-4-29v-3h-1l-2-6h-1l-1-4-2-1v-2l-2-1-4-5h-2l-1-2h-2v-1h-2v-1c-3.424-1.479-16.9-2.354-21-1-14.61,4.824-21.344,18.154-26,33q-0.5,6.5-1,13c-2.088,7.582-1.032,20.3,1,27v5l6,16,2,1v2l2,1v2l2,1,3,4c3.6,2.535,17.956,8.453,26,6v-1h4v-1h3v-1h2v-1h2v-1C307.8,308.572,308.388,307.74,311,307Zm663-67c-1.256-16.5-8.782-29.658-21-35h-3v-1h-3v-1H929v1h-3v1h-3v1h-2v1h-2q-0.5,1-1,2h-2l-2,3h-2q-0.5,1.5-1,3l-4,3q-0.5,2-1,4h-1q-1,3-2,6h-1q-1,6-2,12h74ZM684,266c-4.775,5.247-25.528,6.4-34,9h-5v1h-4v1h-2v1l-5,1q-0.5,1-1,2h-2q-0.5,1-1,2l-4,3c-1.155,1.681-.029,2.26-2,4-0.334,7.238-1.7,14.5,2,20l3,2,2,3h2v1l4,1v1h4c20.445,6.439,38.358-8.788,43-22v-4h1C686,288.612,685.106,267.231,684,266Z"/>
  <path id="blue" class="cls-2" d="M2128,2V4c9.73,0.338,14.21,5.58,24,6v2l5,1c0.33,0.667.67,1.333,1,2,2.02,1.039,6.02.791,8,2,0.33,0.667.67,1.333,1,2h2v1h3c0.33,0.667.67,1.333,1,2h3c0.33,0.667.67,1.333,1,2h2c0.33,0.667.67,1.333,1,2h2c0.33,0.667.67,1.333,1,2h2v1l3,1v2l4,1v2l3,1c0.67,1,1.33,2,2,3h2c2.52,2-.09,3.661,5,5,0.33,1,.67,2,1,3h1v2h1v2c0.67,0.333,1.33.667,2,1v3c0.67,0.333,1.33.667,2,1v3h1c2.32,6.427.02,12.542-1,18-2.76.723-2.24,0.279-3,3h-2c1.34,2.523,1.99,3.5,2,8-1.8.945-1.57,1.385-4,2v2h-4V91c2.01-.574.87,0.12,2-1h-3c-0.33-1-.67-2-1-3l-10,1V87c-1.14-1.139-.4,0-1-2l-3-1c0.06-1.5-.8-5.12,1-5V78h-2c-1.14-1.139,0-.4-2-1V74c-3.64-.931-4.05-3.08-8-4V68c-0.76-1.211-3.81-1.2-5-2-0.67-1-1.33-2-2-3l-4-1V61h-2c-0.33-.667-0.67-1.333-1-2h-3V58c-1.41-.863-1.72-0.731-4-1V55l-6-1V52a26.8,26.8,0,0,1-10-3V48l-7-1c-0.33-.667-0.67-1.333-1-2-4.24-1.968-12.85-1.9-19-2V41h-10c-0.33-.667-0.67-1.333-1-2l-5,1v1c-1.99.371-3.76-1.86-7-1v1h-11v2c-7.21-.126-11,0.43-16,2h-5v1h-2v1l-8,1c-0.33.667-.67,1.333-1,2l-10,2c-0.33,1-.67,2-1,3-2.52.117-3.56,0.033-5,1v1h-2c-0.33.667-.67,1.333-1,2h-3c-0.33.667-.67,1.333-1,2h-3c-0.33.667-.67,1.333-1,2l-4,1c-0.33.667-.67,1.333-1,2h-2v1l-3,1v2l-6,1v2c-0.67.333-1.33,0.667-2,1-0.33,1-.67,2-1,3l-3,1c-3.72,3.4-7.69,10.621-13,12a8.375,8.375,0,0,1-2,4h-1c-0.33,1.666-.67,3.334-1,5-1.67,1.333-3.33,2.667-5,4-0.33,1.333-.67,2.667-1,4-0.67.333-1.33,0.667-2,1-0.33,1-.67,2-1,3h-1c-0.33,1-.67,2-1,3h-2c-0.28,10.247-4.82,10.466-8,17h2c1.14-1.139,0-.4,2-1-0.07,4.881-.43,5.826-2,9h-1v3h-1c-0.33,3.333-.67,6.667-1,10-0.67.333-1.33,0.667-2,1-2.43,5.434,2.03,11.269,0,18h-1v3h-1s1.3,6.7,1,9c-0.18,1.4-.84-0.405-1,1h1v2h1v4h1v2h1v7h1v4h1q0.495,6,1,12c0.67,0.333,1.33.667,2,1v3h1c0.33,1.667.67,3.333,1,5h1c0.33,1,.67,2,1,3l3,2v3l3,2q1.995,5.5,4,11c0.67,0.333,1.33.667,2,1v2l3,2c0.33,1.333.67,2.667,1,4l3,2v2c1.07,0.92.95-.85,1-1h1c0.33-2.333.67-4.667,1-7l3-2v-3c0.67-.333,1.33-0.667,2-1v-4c0.67-.333,1.33-0.667,2-1,0.67-3,1.33-6,2-9h2c0.33-1.667.67-3.333,1-5h-1v-3h-2v-7c0.67,0.333,1.33.667,2,1v-2h1v-2l6-1v-1h1v-3c0.67-.333,1.33-0.667,2-1v-2h1v-3h1v-4c0.67-.333,1.33-0.667,2-1v-3c0.67-.333,1.33-0.667,2-1,0.33-2,.67-4,1-6l3-2v-3h1c0.33-1.333.67-2.667,1-4h1c0.33-2,.67-4,1-6,0.67-.333,1.33-0.667,2-1,0.33-2,.67-4,1-6h1v-2h1v-3c0.67-.333,1.33-0.667,2-1v-3h1v-2h1c0.33-1.667.67-3.333,1-5h1v-4c0.67-.333,1.33-0.667,2-1,0.33-1,.67-2,1-3h1v-4c0.67-.333,1.33-0.667,2-1v-3c0.67-.333,1.33-0.667,2-1v-3c0.67-.333,1.33-0.667,2-1,0.33-2,.67-4,1-6h1q1.995-6,4-12h2c0.67-3,1.33-6,2-9,0.67-.333,1.33-0.667,2-1V96h1V94h1V92c0.67-.333,1.33-0.667,2-1,0.67-3,1.33-6,2-9,0.67,0.333,1.33.667,2,1,0.33-2,.67-4,1-6h1V75c0.67-.333,1.33-0.667,2-1V71h1V69h1V67c0.67-.333,1.33-0.667,2-1V63h1c0.33-1.333.67-2.667,1-4h1V56h1c0.33-1.666.67-3.334,1-5h1c1.14-1.139,0-.4,2-1,0.57-2.01-.12-0.865,1-2,6.08-7.217,19.12-4.656,30-4v2l3-1c0.12,3.652,1.24,6.441,2,9v7h1v7h1v4h1v9h1v2h1q1.005,10.5,2,21h2q1.005,12,2,24c0.67-.333,1.33-0.667,2-1v9c3.98,3.692,1.26,8.573,3,14h1v3h1v7h1v7h1v3h1q1.005,9.5,2,19h2v11h1v3h1v7h1v2h1v7h1v4h1v5h1v2h1v8h1v6c0.67,0.333,1.33.667,2,1v2h1v6h1v3h1v5c0.67,0.333,1.33.667,2,1v6h1v2h1q1.005,6,2,12h2a10.582,10.582,0,0,0-1,4h1v-1h4c0.67-1.333,1.33-2.667,2-4l4-1c0.67-1,1.33-2,2-3h3l6-8c2.33-1.666,4.67-3.334,7-5v-2h2c1.42-5.231,4.58-3.33,6-8h2c0.33-1.333.67-2.667,1-4,1.97-.457,4.78-0.911,5-3-0.23-.245-1.81.159-1-1h1c2.05-2.509,2.73-3.5,7-4-0.33,1-.67,2-1,3h1v-1h1l3-9c0.67-.333,1.33-0.667,2-1v-3c0.67-.333,1.33-0.667,2-1v-4c0.67-.333,1.33-0.667,2-1v-2h1v-3h1v-2h1q1.005-5.5,2-11c0.67-.333,1.33-0.667,2-1v-1h-1c-0.29-3.354-.55-9.261,1-11v6h1c-0.09-8.845,1.17-13.6,3-20V169h-1c0.33-2,.67-4,1-6h2c-1.35-3.683-1.9-11.477-2-16,1.71-1.082,2.12-2.129,3-4l4,1q0.495,8,1,16h1v2h1v20h-1v2h-1c-0.96,2.769-.72,12.153,0,13-0.07-2.659.04-5.371,1-7,0.67-.333,1.33-0.667,2-1-0.33-.667-0.67-1.333-1-2h1c1.57-1.826,1.46-1.9,5-2v18h-1v3h-1v5c-0.67.333-1.33,0.667-2,1v5h-1v2h-1v3h-1v4c-0.67.333-1.33,0.667-2,1v2h-1c-0.67,3-1.33,6-2,9-0.67.333-1.33,0.667-2,1v2h-1v2h-1v2h-1v2h-1v2c-0.67.333-1.33,0.667-2,1-0.67,2-1.33,4-2,6-0.67.333-1.33,0.667-2,1-0.33,1.333-.67,2.667-1,4-0.67.333-1.33,0.667-2,1v2l-6,5v2c-1.33,1-2.67,2-4,3-0.33,1-.67,2-1,3h-2c-1.2,4.464-5.17,6.167-8,9-1.67,2-3.33,4-5,6h-2c-0.67,1-1.33,2-2,3h-2l-3,4-4,1-3,4h-2c-0.33.667-.67,1.333-1,2h-2v1h-2v1l-3,1v2c2.47,1.663,2.27,3.571,4,6l6,5c0.33,0.667.67,1.333,1,2h2c0.33,0.667.67,1.333,1,2h5v2h17c0.33-.667.67-1.333,1-2h5v-1h3v-1h1v1l3,1v6h1v2h1c0.96,1.5.8,2.457,1,5a8.54,8.54,0,0,0-2,2h-4c-0.33.667-.67,1.333-1,2h-4c-0.33.667-.67,1.333-1,2h-3c-0.33.667-.67,1.333-1,2h-3v1h-2v1h-5v1h-3c-0.33.667-.67,1.333-1,2-3.03,1.554-11.33,1.994-16,2h-18c-2.57-.99-3.22-4.924-6-3v-2h-1c-1.4-1.422-.49-1.338-3-2v-2a18.023,18.023,0,0,1-6-6v-2c-0.67-.333-1.33-0.667-2-1v-2h-1v-2h-1v-3c-0.67.333-1.33,0.667-2,1v-5c-5.75.231-8.47,1.9-15,2,0.33,0.667.67,1.333,1,2h-11c-2.27,2.141-7.48,1.992-12,2h-25v-1h-3v-1h-10v1c1.91,1.256,1.66,1.014,2,4-3.1,1.643-1.8,1.9-7,2-2.37-2.613-2.69-.659-6-2v-1h-2v-1h-3v-1h-4c-0.33-.667-0.67-1.333-1-2h-6c0.33-.667.67-1.333,1-2l-10-2v-2l-6,1v-1h-3v-1l-6-2v-1h-2c-0.33-.667-0.67-1.333-1-2h-2v-1h-2v-1h-2v-1h-2c-0.33-.667-0.67-1.333-1-2h-2c-0.6-.4-0.81-1.333-2-2v1h1c-0.67,2-1.33,4-2,6h-1c-0.67,3-1.33,6-2,9-0.67.333-1.33,0.667-2,1v4h-1c-0.98,2.211-.85,3.867-1,7h-2c-0.37,3.87-1.54,4.143-2,8-2.76.723-2.24,0.279-3,3a8.272,8.272,0,0,0-4,2v1l-4,1v1h-6c-7.33.057-15.07-.442-21-1,0.05-3.108.04-4.834,1-7h1v-4c0.67,0.333,1.33.667,2,1v-3h1v-2h1v-3c0.67-.333,1.33-0.667,2-1v-3h1c0.33-1.666.67-3.334,1-5h1c0.33-2,.67-4,1-6h2a21.557,21.557,0,0,1,2-8h1v-3c0.67-.333,1.33-0.667,2-1v-4c0.67-.333,1.33-0.667,2-1v-4h1c1.67-2.445,1.65-1.931,2-6h2v-4c-3.85-.936-3.08-2.267-5-5h-1a7.627,7.627,0,0,1-2-4h-2v-2c-3.86-2.233-3.6-4.59-6-8-0.67-.333-1.33-0.667-2-1a17.2,17.2,0,0,1-4-8h-2c-0.67-2-1.33-4-2-6h-2c-0.25-2.245-.09-2.65-1-4h-1v-2c-0.67-.333-1.33-0.667-2-1v-3h-1v-2h-1v-3c-0.67-.333-1.33-0.667-2-1-0.33-1.667-.67-3.333-1-5h-1v-4h-1c-0.33-1.333-.67-2.667-1-4h-1v-3c-2.2-5.388-3.74-7.994-4-16h-2a36.867,36.867,0,0,0-2-9V156q0.495-11,1-22h1v-3c0.67-.333,1.33-0.667,2-1,0.33-3.666.67-7.334,1-11h1v-2h1c0.33-2,.67-4,1-6h1c0.33-1.333.67-2.667,1-4h1v-4h1v-2h1V97c0.67-.333,1.33-0.667,2-1,0.33-1.333.67-2.667,1-4h1V90h1V88h1V86h1c0.91-1.381.69-1.753,1-4h2c0.26-2.243.09-2.65,1-4h1V76c0.67-.333,1.33-0.667,2-1,0.33-1.333.67-2.667,1-4l3-2V67l3-2c1.65-1.856,4.34-6.223,5-9h2c1.58-3.344,3.39-4.77,6-7V48l3-1c0.33-1,.67-2,1-3h2V43c1.47-1.385,1.3-.51,2-3h2c1.85-3.291,8-8.974,12-10V28a26.02,26.02,0,0,0,9-4c0.33-.667.67-1.333,1-2h2V21h2V20h2V19h2c0.33-.667.67-1.333,1-2h2V16h2V15h3c0.33-.667.67-1.333,1-2h3c0.67-1,1.33-2,2-3h4V9l6-2V6h3V5h2V4h4V3h2V2h5V1h5V0h62V1h5V2C2123.8,3.2,2124.99,2.462,2128,2Zm-50,90h-2c-0.67,3-1.33,6-2,9h-2c-0.67,3-1.33,6-2,9-0.67.333-1.33,0.667-2,1v3h-1v2h-1c-0.33,2-.67,4-1,6h-1v2h-1v4c-0.67.333-1.33,0.667-2,1v2h-1v2h-1v4l-3,2c-0.33,2.333-.67,4.667-1,7-0.67.333-1.33,0.667-2,1-0.33,2-.67,4-1,6-0.67.333-1.33,0.667-2,1v3h-1v3h-1v3h-1v5c-0.67-.333-1.33-0.667-2-1v4h-1v2h-1v4c-0.67.333-1.33,0.667-2,1v4h-1v2h-1c-0.33,2-.67,4-1,6h-1a17.13,17.13,0,0,0-2,8h-2c-0.33,2-.67,4-1,6h-1c0.33,0.667.67,1.333,1,2h-1a8.868,8.868,0,0,0-2,4l76-1c-0.33-1.667-.67-3.333-1-5h-1v-5h-1c-0.33-3.333-.67-6.667-1-10h-1v-8h-1v-6h-1v-3h-1v-8h-1v-4h-1v-8h-1v-3h-1v-9c-0.67-.333-1.33-0.667-2-1v-9h-1v-5h-1c-0.97-3.291.88-6.913-1-9-0.57,2.01.12,0.865-1,2a77.415,77.415,0,0,1,1-9h-1v-2h-1v-5h-1V92c-0.67-.333-1.33-0.667-2-1-1.65-3.766,1.41-9.328-1-12-0.33,2.333-.67,4.667-1,7h-1C2078.35,88.447,2078.32,87.92,2078,92Zm686,13h49V352h-48V322c-3.91,1.219-1.28.207-3,3h-1v2h-1v2c-0.67.333-1.33,0.667-2,1v2c-0.67.333-1.33,0.667-2,1v2q-6.495,6-13,12l-4,1c-0.33.667-.67,1.333-1,2h-3v1h-2v1h-3v1h-5v1h-9v1h-6v-1h-9v-1h-4v-1l-7-1v-1l-6-2v-1h-2v-1l-4-1c-0.33-.667-0.67-1.333-1-2h-2l-3-4h-2c-1.33-1.666-2.67-3.334-4-5-0.67-.333-1.33-0.667-2-1v-2c-1.33-1-2.67-2-4-3v-2c-0.67-.333-1.33-0.667-2-1v-2c-0.67-.333-1.33-0.667-2-1v-2h-1v-2h-1v-2h-1v-2h-1c-0.33-1.333-.67-2.667-1-4h-1v-3h-1v-3h-1v-3h-1v-3h-1v-4h-1v-5h-1v-6h-1v-8h-1c-1.44-5.156-.09-28.153,1-32v-8h1v-6h1v-5h1v-4c6.53-18.371,14.37-32.658,29-43,0.67-1,1.33-2,2-3l6-2c0.33-.667.67-1.333,1-2h3v-1h2v-1h3v-1h3v-1h4v-1l23-1v1h6v1h3v1h3v1h3c0.33,0.667.67,1.333,1,2l4,1c0.33,0.667.67,1.333,1,2h2l3,4c6.76,4.918,11.43,11.965,15,20h1V105Zm-840,17c1.14,1.139.4,0,1,2h-1v-2Zm507,113h-47c-0.16-16.455-17.08-35.242-35-30l-9,1v1l-4,1c-0.33.667-.67,1.333-1,2-12.16,8.218-14.55,17.405-19,33v12h-1v8h1v12h1v5h1c0.33,2.666.67,5.334,1,8h1v2h1v3h1v2c0.67,0.333,1.33.667,2,1,0.33,1.333.67,2.667,1,4l3,2v2c0.67,0.333,1.33.667,2,1v1h2c0.67,1,1.33,2,2,3h2c0.33,0.667.67,1.333,1,2,5.75,3.516,22.24,4.087,29,1v-1h2c0.33-.667.67-1.333,1-2h2c1.67-2,3.33-4,5-6,0.67-.333,1.33-0.667,2-1v-2c0.67-.333,1.33-0.667,2-1v-2h1v-3h1v-2h1c1.22-3.134-.07-5.691,2-8,2.05-1.812,8.3-1,12-1h33v1h1c-1.39,8.318-2.14,17.831-5,25h-1v3h-1c-0.33,1.333-.67,2.667-1,4h-1c-0.33,1.333-.67,2.667-1,4-0.67.333-1.33,0.667-2,1v2c-0.67.333-1.33,0.667-2,1v2l-3,2v2c-1.33,1-2.67,2-4,3-3.38,3.392-6.98,7.329-11,10h-2c-0.33.667-.67,1.333-1,2l-6,2v1h-2v1l-9,2v1l-19,3c-22.56.539-35.87-2.377-50-10l-4-1c-0.33-.667-0.67-1.333-1-2h-2c-0.67-1-1.33-2-2-3h-2l-3-4h-2c-0.33-.667-0.67-1.333-1-2-1.33-1-2.67-2-4-3v-2c-1.67-1.333-3.33-2.667-5-4v-2c-0.67-.333-1.33-0.667-2-1-0.33-1-.67-2-1-3h-1c-0.33-1.333-.67-2.667-1-4-0.67-.333-1.33-0.667-2-1v-2h-1v-2h-1v-3h-1v-2h-1c-0.33-2-.67-4-1-6h-1v-3h-1v-3h-1v-4h-1v-5h-1v-6h-1V265c-0.21-2.423-1.98-5.465-1-9h1V243h1v-7h1v-5h1v-4h1v-3h1v-3h1v-3h1v-3h1c0.67-2,1.33-4,2-6h1v-2h1v-2h1c0.33-1.333.67-2.667,1-4,0.67-.333,1.33-0.667,2-1v-2l3-2v-2l9-8c1.67-2,3.33-4,5-6h2c0.33-.667.67-1.333,1-2l3-1v-1h2c0.33-.667.67-1.333,1-2h2v-1l4-1v-1c1.67-.333,3.33-0.667,5-1v-1l6-1v-1h4v-1h5c11.4-3.426,30.54-2.437,41,1h4v1l6,1v1h2v1h3v1h2v1h2c0.33,0.667.67,1.333,1,2l4,1c0.33,0.667.67,1.333,1,2h2c0.67,1,1.33,2,2,3C2419.88,192.275,2428.83,210.037,2431,235Zm74-12-45-4c0.26-6.358,3.04-10.583,5-15,0.33-1.667.67-3.333,1-5h1c0.33-1,.67-2,1-3,0.67-.333,1.33-0.667,2-1v-2c0.67-.333,1.33-0.667,2-1v-2c1.33-1,2.67-2,4-3l6-7h2c0.67-1,1.33-2,2-3h2c0.33-.667.67-1.333,1-2l4-1v-1l6-2v-1l9-2v-1l9-1v-1h7v-1h12c13.87,0,24.43,2.218,34,6l6,1v1l4,1v1h2c0.33,0.667.67,1.333,1,2h2v1l3,1c0.33,0.667.67,1.333,1,2h2l6,7c0.67,0.333,1.33.667,2,1v2c0.67,0.333,1.33.667,2,1,0.33,1,.67,2,1,3h1v2h1c0.67,2,1.33,4,2,6h1c0.33,2,.67,4,1,6h1v4h1c3,9.792,1,31.817,1,44v95c-3.84,1.413-10.62,1-16,1h-30c-2.32-6.277-1.05-17.965-1-26h-1v1c-2.12,1.867-2.32,4.614-4,7-1.33,1-2.67,2-4,3v2c-0.67.333-1.33,0.667-2,1v1h-2l-3,4h-2c-0.33.667-.67,1.333-1,2h-2v1l-6,2v1l-6,1v1h-4v1h-6v1c-6.2,1.753-21.13-.743-25-2l-13-3v-1h-2v-1h-2c-0.33-.667-0.67-1.333-1-2l-4-1-3-4h-2v-1l-3-2v-2c-1.33-1-2.67-2-4-3-0.33-1.333-.67-2.667-1-4-0.67-.333-1.33-0.667-2-1v-2h-1v-3h-1v-3h-1v-3h-1v-4h-1v-9h-1q0.495-8.5,1-17h1v-5h1v-3h1v-2h1v-3h1v-2c0.67-.333,1.33-0.667,2-1v-2c0.67-.333,1.33-0.667,2-1v-2l6-5c0.67-1,1.33-2,2-3h2c0.67-1,1.33-2,2-3l4-1v-1l6-2v-1h3v-1h2v-1h4v-1h3v-1h4v-1h5v-1h6v-1h8v-1h9v-1h8v-1h7v-1h5v-1h3v-1h3c3.68-1.7,9.19-8.641,7-16h-1v-5h-1a11.229,11.229,0,0,0-2-5h-1c-4.65-6.841-10.35-9.01-22-9h-8C2516.77,205.166,2507.22,211.919,2505,223Zm509,49H2894c-0.18,21.79,10.4,36.979,26,43l13,1h11c9.83-3.2,20.84-10.283,23-21l46,3v1c-2.05,2.27-.85,4.815-2,8h-1v3h-1c-0.33,1.333-.67,2.667-1,4h-1v3c-0.67.333-1.33,0.667-2,1-0.33,1.333-.67,2.667-1,4-0.67.333-1.33,0.667-2,1v2c-1.33,1-2.67,2-4,3v2c-1.67,1.333-3.33,2.667-5,4-0.33.667-.67,1.333-1,2h-2l-3,4h-2c-0.33.667-.67,1.333-1,2l-3,1v1l-4,1v1l-4,1v1l-5,1v1h-3v1l-7,1v1h-5c-15.18,4.539-38.85,1.778-51-3l-6-1v-1h-2v-1h-2v-1h-2v-1h-2v-1h-2c-0.33-.667-0.67-1.333-1-2h-2c-0.33-.667-0.67-1.333-1-2h-2c-0.67-1-1.33-2-2-3h-2c-1.67-2-3.33-4-5-6-1.33-1-2.67-2-4-3v-2c-1.33-1-2.67-2-4-3v-2c-0.67-.333-1.33-0.667-2-1-0.33-1.333-.67-2.667-1-4-0.67-.333-1.33-0.667-2-1-0.33-1.333-.67-2.667-1-4h-1c-0.33-1.333-.67-2.667-1-4h-1v-3h-1v-2h-1c-0.33-2.333-.67-4.667-1-7h-1v-3h-1v-4h-1v-6h-1v-7h-1c-1.39-4.954-.04-26.361,1-30v-7h1v-6h1v-4h1v-3h1v-4h1v-2h1c0.33-2,.67-4,1-6h1c0.33-1.333.67-2.667,1-4h1c0.33-1.333.67-2.667,1-4,0.67-.333,1.33-0.667,2-1,0.33-1.333.67-2.667,1-4,0.67-.333,1.33-0.667,2-1v-2l3-2v-2c1.67-1.333,3.33-2.667,5-4q3.495-4,7-8h2c0.67-1,1.33-2,2-3h2c0.33-.667.67-1.333,1-2h2c0.33-.667.67-1.333,1-2l6-2v-1h2v-1l13-3c10.2-3.4,27.78-4.414,39-1h5l19,7C3003.92,192.952,3014.12,220.179,3014,272Zm176-73h2c3.98-10,9.81-19.325,18-25h2c0.33-.667.67-1.333,1-2l6-2v-1l4-1v-1h4v-1h3v-1h6c14.97-4.3,34.69,3.106,43,9l6,7c1.33,1,2.67,2,4,3v2c0.67,0.333,1.33.667,2,1v2c0.67,0.333,1.33.667,2,1,0.33,1.667.67,3.333,1,5h1v2h1v3c5.21,13.128,5,30.346,5,49V351c-4.09,1.5-11.36,1-17,1h-32V264c0-17.435,1.43-33.851-5-45-4.5-7.81-10.58-12.02-23-12-4.22.007-8.88,0.019-11,2-3.6.913-4.8,2.824-7,5-9.91,9.785-9,18.821-9,38v99c-3.84,1.413-10.62,1-16,1h-31c-3.04-8.34-1-27.38-1-38V229h-1v-5h-1v-2h-1v-2l-6-8h-2c-0.33-.667-0.67-1.333-1-2-5.14-3.238-20.92-4.748-27-1-0.33.667-.67,1.333-1,2h-2c-1.33,1.667-2.67,3.333-4,5l-3,2v2h-1c-0.67,2-1.33,4-2,6h-1v3h-1v6c-2.38,8.311-1,21.933-1,32v85h-48c-1.67-4.587-1-12.814-1-19V167c3.84-1.413,10.62-1,16-1h31v33h2q1.995-5.5,4-11c0.67-.333,1.33-0.667,2-1v-2c0.67-.333,1.33-0.667,2-1v-2l3-2c1.67-2,3.33-4,5-6h2c0.33-.667.67-1.333,1-2l3-1v-1h2v-1h2v-1h3v-1h3v-1h3v-1l22-1v1h6v1l6,1C3173.91,171.82,3188.75,184.83,3190,199Zm129-33h51q18,67.994,36,136h2c0.26-3.939,1.96-6.973,3-10,0.33-2.666.67-5.334,1-8h1v-3h1q1.005-5.5,2-11h1q1.995-9.5,4-19c4.79-13.88,8.05-30.206,13-44,0.33-2.666.67-5.334,1-8h1v-3h1q1.005-5.5,2-11h1v-4h1v-4h1v-4h1c0.33-2,.67-4,1-6h1c2.29-2.022,9.95-1,14-1h37q-3,10.5-6,21h-1c-0.67,3-1.33,6-2,9-4.18,10.4-7.82,22.6-12,33v3h-1v3h-1v3h-1v3h-1v3h-1v3h-1v3h-1c-0.33,2-.67,4-1,6-11.98,29.915-20.05,63.072-32,93-0.33,2-.67,4-1,6h-1v3h-1v3h-1v3h-1v3h-1v3h-1v3h-1v3h-1v2h-1v3h-1c-0.33,1.333-.67,2.667-1,4h-1c-0.33,1.333-.67,2.667-1,4-0.67.333-1.33,0.667-2,1-0.33,1.333-.67,2.667-1,4l-3,2v2q-3.495,3-7,6c-1.33,1.666-2.67,3.334-4,5h-2c-0.33.667-.67,1.333-1,2h-2c-0.33.667-.67,1.333-1,2h-2v1l-4,1v1l-9,2v1l-12,1v1h-17v-1h-8q-7.005-2-14-4c0.43-6.255,3.21-12.033,5-17v-4l6-18c5.57,1.141,18.91,5.81,24,1h2c0.33-.667.67-1.333,1-2l3-1v-2l3-2v-2h1v-2h1v-3h1c0.78-1.674,2.82-7.365,2-10h-1v-3h-1v-3h-1v-3h-1v-3h-1v-3h-1v-3h-1v-3h-1v-3h-1v-3h-1v-3c-7.7-19.194-13.31-40.8-21-60v-3h-1v-3h-1v-3h-1v-3h-1v-3h-1v-4h-1v-3h-1v-3h-1v-3h-1v-3h-1v-3h-1v-3h-1c-0.33-2-.67-4-1-6h-1v-3h-1v-3h-1v-3h-1v-3h-1v-3h-1c-0.33-2-.67-4-1-6h-1c-0.33-2-.67-4-1-6h-1c-0.33-2-.67-4-1-6h-1c-0.33-2-.67-4-1-6C3322.05,177.1,3319.43,172.516,3319,166ZM2239,198v5h1v-5h-1Zm655,42h73c0.19-12.436-2.19-15.9-7-23v-2c-1.33-1-2.67-2-4-3-0.33-.667-0.67-1.333-1-2h-2c-0.67-1-1.33-2-2-3l-4-1v-1h-3v-1h-3v-1c-3.97-1.241-19.31-.08-22,1v1h-2v1l-6,2-3,4C2899.19,218.42,2896.17,226.992,2894,240Zm-656-36v2h1C2238.43,203.99,2239.12,205.135,2238,204Zm468,101c2.61,0.742,3.21,1.569,5,3v1l6,2v1h4c15.3,4.871,29.49-4.633,35-13,0.67-2,1.33-4,2-6h1c0.33-1.333.67-2.667,1-4h1v-3c3.45-8.713,6.53-28.91,3-41v-6h-1v-4h-1v-3h-1v-3h-1v-2h-1v-3c-0.67-.333-1.33-0.667-2-1-0.33-1.333-.67-2.667-1-4l-3-2v-2h-1c-0.67-1-1.33-2-2-3h-2c-0.33-.667-0.67-1.333-1-2h-2c-0.33-.667-0.67-1.333-1-2h-2v-1h-3c-9.6-3.562-17.35-2.082-25,2l-4,1c-0.67,1-1.33,2-2,3l-6,5v2c-0.67.333-1.33,0.667-2,1v2h-1c-0.33,1.333-.67,2.667-1,4h-1c-0.67,3-1.33,6-2,9h-1q-0.495,6-1,12h-1c-1.36,4.886.01,18.548,1,22v7h1v5h1c0.67,3,1.33,6,2,9h1c0.33,1.333.67,2.667,1,4h1v2c0.67,0.333,1.33.667,2,1v2h1C2704.44,301.762,2705.27,302.408,2706,305Zm-748-99h1v3h-1v-3Zm279,1c-0.19,2.589-2.63,9.8-2,11h1c0.19-2.589,2.63-9.8,2-11h-1Zm-313,7c1.14,1.139.4,0,1,2h-1v-2Zm309,7v3h1v-3h-1Zm-220,37h-2q-1.005,6-2,12h-2c0.33,1.666.67,3.334,1,5h-1v-1c-0.86-1.889-1,2-1,2,5.51,0.663,3.16,2.082,6,4l4,1c0.33,0.667.67,1.333,1,2h2v1l3,1v2l10,2c-0.33.667-.67,1.333-1,2,2.33,0.667,4.67,1.333,7,2v2h5c0.33,0.667.67,1.333,1,2l9,2v2l18,2v1h2v1l8-1v1h1v-1l11,1v-1c2.75-.667,4.44.273,5,2h1c0.33-1,.67-2,1-3h2v-1l10,1,15-2v-1c-4.26-3.7-2.17-6.443-4-12h-1v-5h-1v-2h-1v-4h-1c-0.33-3.333-.67-6.667-1-10h-1v-2h-1q-0.495-6-1-12c-0.67-.333-1.33-0.667-2-1q-1.005-9.5-2-19h-2v-4h-1c-4.16,3.572-20.46-.833-27,1-6.37,1.786-16.97,1-25,1h-10c-0.22.092-.52,1.669-2,2-7.68,1.722-17.66-1.311-24,1C2019.69,243.543,2013.68,248.894,2013,258Zm-52-13c0.67,1,1.33,2,2,3h1C1964.64,247.1,1961.45,245.283,1961,245Zm14,19c1.24,2.206,2.83,3.524,4,6h1v-2C1978.33,266.667,1976.67,265.333,1975,264Zm586,2c-4.77,5.247-25.53,6.4-34,9h-5v1h-4v1h-2v1l-5,1c-0.33.667-.67,1.333-1,2h-2c-0.33.667-.67,1.333-1,2-1.33,1-2.67,2-4,3-1.15,1.681-.03,2.26-2,4-0.33,7.238-1.69,14.5,2,20l3,2c0.67,1,1.33,2,2,3h2v1l4,1v1h4c20.45,6.439,38.36-8.788,43-22v-4h1C2562.99,288.612,2562.11,267.231,2561,266Zm-367,2v2h1v-1h1C2194.86,267.861,2196,268.6,2194,268Zm-193,21v2c4.11,2.215,6.88,5.834,12,7v-3c-3.07-.807-3.78-2.408-6-4v-1Zm40,22v2l5,1v-1c-3.95-1.49-5.05-1.337-6-6l-10-1v-2a29.367,29.367,0,0,1-7-1c-0.67-1.666-1.33-3.334-2-5h-2v1h1c1.26,2.822,3.31,5.7,6,7h3v1h2c0.5,0.287.62,1.452,2,2v-1h1c0.33,0.667.67,1.333,1,2Zm71,5v1h8v-1h-8Zm-46,1c1.14,1.139,0,.4,2,1C2066.86,316.861,2068,317.6,2066,317Zm26,0v1h11v1h1v-1h7v-1h-19Zm-51,6v1l6,1v-1Zm7,2c1.14,1.139,0,.4,2,1C2048.86,324.861,2050,325.6,2048,325Zm3,1c0.49,0.427,1.25,1.853,3,1v-1h-3Zm4,1v1h5v-1h-5Zm141,23h2v1C2195.99,350.426,2197.13,351.12,2196,350Z"/>
</svg>
