<svg width="189.958" height="27.779" viewBox="0 0 189.958 27.779" xmlns="http://www.w3.org/2000/svg"><g id="svgGroup" stroke-linecap="round" fill-rule="nonzero" font-size="9pt" stroke="#000" stroke-width="0.25mm" fill="#000" style="stroke:#000;stroke-width:0.25mm;fill:#000"><path d="M 112.676 2.38 L 113.56 0.578 A 0.551 0.551 0 0 1 113.906 0.333 Q 114.011 0.306 114.138 0.306 Q 114.546 0.306 114.903 0.51 Q 115.26 0.714 115.226 0.952 A 8.351 8.351 0 0 1 114.923 1.922 Q 114.536 2.959 113.793 4.341 A 37.645 37.645 0 0 1 113.305 5.219 Q 112.241 7.078 110.752 9.41 A 171.58 171.58 0 0 1 109.31 11.628 A 11.871 11.871 0 0 1 109.115 11.913 Q 108.834 12.308 108.63 12.512 L 108.562 12.58 A 0.258 0.258 0 0 0 108.486 12.765 Q 108.485 12.806 108.494 12.852 L 108.562 13.362 Q 109.072 13.532 109.31 13.532 A 7.724 7.724 0 0 0 110.769 13.387 A 9.814 9.814 0 0 0 111.758 13.141 Q 113.05 12.75 114.257 12.138 A 19.374 19.374 0 0 0 115.245 11.603 Q 115.725 11.323 116.131 11.044 A 10.987 10.987 0 0 0 116.314 10.914 A 27.412 27.412 0 0 0 118.439 9.193 A 21.016 21.016 0 0 0 120.003 7.633 Q 121.516 5.95 122.604 4.012 A 2.069 2.069 0 0 0 122.726 3.593 Q 122.764 3.39 122.772 3.158 A 3.734 3.734 0 0 0 122.774 3.026 A 4.71 4.71 0 0 1 122.959 2.318 A 4.305 4.305 0 0 1 122.961 2.312 Q 123.08 1.972 123.25 1.734 A 0.428 0.428 0 0 1 123.476 1.547 Q 123.606 1.496 123.794 1.496 Q 124.202 1.496 124.525 1.717 A 0.827 0.827 0 0 1 124.654 1.825 Q 124.827 2.004 124.783 2.231 A 0.532 0.532 0 0 1 124.78 2.244 A 5.53 5.53 0 0 1 124.465 3.138 Q 124.065 4.041 123.284 5.134 A 25.231 25.231 0 0 1 121.697 7.125 A 31.889 31.889 0 0 1 120.411 8.5 Q 118.728 10.2 116.858 11.56 A 11.651 11.651 0 0 1 115.817 12.253 A 15.726 15.726 0 0 1 114.597 12.903 Q 113.288 13.532 111.894 13.923 Q 110.5 14.314 109.208 14.314 L 108.834 14.314 Q 109.088 15.489 109.431 16.397 A 10.364 10.364 0 0 0 109.48 16.524 A 8.765 8.765 0 0 0 110.032 17.667 A 11.142 11.142 0 0 0 110.534 18.462 Q 111.224 19.416 111.946 20.035 A 6.539 6.539 0 0 0 111.996 20.077 Q 112.744 20.706 113.73 20.706 Q 114.336 20.706 115.061 20.512 A 7.354 7.354 0 0 0 115.158 20.485 Q 115.94 20.264 116.144 19.924 A 0.835 0.835 0 0 1 116.281 19.763 A 0.543 0.543 0 0 1 116.654 19.618 Q 116.892 19.618 116.892 19.788 A 0.282 0.282 0 0 1 116.882 19.858 Q 116.865 19.924 116.819 20.01 A 1.313 1.313 0 0 1 116.79 20.06 A 3.307 3.307 0 0 1 116.561 20.352 Q 116.308 20.641 115.918 20.984 A 11.466 11.466 0 0 1 115.787 21.097 A 10.707 10.707 0 0 1 114.776 21.865 A 9.264 9.264 0 0 1 114.376 22.117 A 4.551 4.551 0 0 1 113.993 22.323 Q 113.597 22.51 113.29 22.538 A 1.158 1.158 0 0 1 113.186 22.542 A 4.382 4.382 0 0 1 112.047 22.306 A 3.539 3.539 0 0 1 111.01 21.726 A 4.527 4.527 0 0 1 110.383 21.099 Q 110.108 20.769 109.84 20.347 A 11.312 11.312 0 0 1 109.31 19.414 Q 108.939 18.624 108.569 17.51 A 31.182 31.182 0 0 1 108.29 16.626 L 107.916 15.368 A 5.528 5.528 0 0 0 107.829 14.969 A 4.318 4.318 0 0 0 107.746 14.688 A 16.53 16.53 0 0 1 107.663 14.434 Q 107.627 14.317 107.596 14.213 A 9.31 9.31 0 0 1 107.576 14.144 L 107.406 14.076 Q 104.517 17.985 101.675 20.501 A 26.429 26.429 0 0 1 100.538 21.454 A 16.174 16.174 0 0 1 98.343 22.932 Q 96.134 24.152 94.078 24.174 A 5.791 5.791 0 0 1 92.647 24.007 A 4.079 4.079 0 0 1 90.729 22.933 A 4.138 4.138 0 0 1 89.597 20.76 A 6.015 6.015 0 0 1 89.488 19.584 A 10.69 10.69 0 0 1 89.697 17.518 A 12.831 12.831 0 0 1 89.93 16.541 Q 90.372 14.96 91.222 13.26 Q 92.31 11.084 93.857 9.333 A 13.441 13.441 0 0 1 96.019 7.35 A 11.673 11.673 0 0 1 97.257 6.562 A 8.125 8.125 0 0 1 99.831 5.647 A 7.497 7.497 0 0 1 101.082 5.542 Q 102.374 5.542 102.969 6.171 A 2.137 2.137 0 0 1 103.521 7.299 A 3.017 3.017 0 0 1 103.564 7.82 A 4.93 4.93 0 0 1 103.476 8.721 Q 103.397 9.145 103.248 9.604 A 8.554 8.554 0 0 1 103.19 9.775 A 11.58 11.58 0 0 1 102.543 11.286 A 10.264 10.264 0 0 1 102.289 11.747 Q 101.762 12.648 101.218 13.124 A 0.501 0.501 0 0 1 101.102 13.212 A 0.394 0.394 0 0 1 100.912 13.26 A 0.245 0.245 0 0 1 100.845 13.252 Q 100.769 13.23 100.749 13.153 A 0.25 0.25 0 0 1 100.742 13.09 Q 100.742 12.893 100.905 12.696 A 1.184 1.184 0 0 1 100.98 12.614 A 2.891 2.891 0 0 0 101.391 12.157 Q 101.562 11.925 101.723 11.631 A 7.244 7.244 0 0 0 102.034 10.982 A 6.356 6.356 0 0 0 102.383 9.919 A 4.83 4.83 0 0 0 102.51 8.84 Q 102.51 8.14 102.254 7.664 A 1.687 1.687 0 0 0 102.102 7.429 A 1.284 1.284 0 0 0 101.433 6.984 Q 101.159 6.902 100.81 6.902 A 6.054 6.054 0 0 0 97.951 7.646 Q 97.109 8.09 96.285 8.802 A 11.497 11.497 0 0 0 96.05 9.01 A 17.26 17.26 0 0 0 93.489 11.956 A 19.284 19.284 0 0 0 93.296 12.24 A 20.65 20.65 0 0 0 91.728 15.023 A 18.314 18.314 0 0 0 91.324 15.963 Q 90.576 17.85 90.406 19.414 A 4.712 4.712 0 0 0 90.389 19.817 A 4.004 4.004 0 0 0 90.797 21.607 Q 91.29 22.61 92.208 23.171 A 3.241 3.241 0 0 0 93.932 23.646 A 3.982 3.982 0 0 0 94.282 23.63 Q 97.274 23.367 100.139 20.958 A 16.541 16.541 0 0 0 100.334 20.791 A 30.408 30.408 0 0 0 102.6 18.591 Q 104.529 16.529 106.59 13.702 Q 106.182 13.294 106.046 12.716 A 1.668 1.668 0 0 1 106.034 12.572 Q 106.027 12.37 106.074 12.203 A 0.883 0.883 0 0 1 106.267 11.849 A 0.932 0.932 0 0 1 106.943 11.528 A 1.172 1.172 0 0 1 106.998 11.526 A 1.589 1.589 0 0 1 107.39 11.572 A 1.118 1.118 0 0 1 107.916 11.866 Q 108.494 10.846 110.058 8.194 A 88.113 88.113 0 0 0 110.178 7.994 Q 110.385 7.646 110.755 7.021 A 71.816 71.816 0 0 0 111.269 6.137 A 97.485 97.485 0 0 0 111.826 5.151 Q 112.404 4.114 112.88 3.196 A 0.087 0.087 0 0 0 112.898 3.169 Q 112.91 3.141 112.913 3.096 A 0.504 0.504 0 0 0 112.914 3.06 A 0.118 0.118 0 0 0 112.906 3.023 Q 112.878 2.942 112.746 2.757 A 4.433 4.433 0 0 0 112.744 2.754 Q 112.506 2.584 112.676 2.38 Z M 14.654 16.966 L 13.804 18.326 A 57.153 57.153 0 0 1 13.553 19.028 A 69.109 69.109 0 0 1 13.277 19.771 A 40.526 40.526 0 0 1 12.967 20.566 A 51.524 51.524 0 0 1 12.614 21.42 A 4.929 4.929 0 0 1 12.257 22.109 Q 11.962 22.576 11.594 22.882 Q 11.186 23.223 10.808 23.336 A 1.284 1.284 0 0 1 10.438 23.392 A 0.979 0.979 0 0 1 10.169 23.359 Q 9.867 23.272 9.787 22.964 A 1.002 1.002 0 0 1 9.758 22.712 Q 9.758 22.134 10.166 21.488 A 300.719 300.719 0 0 1 10.77 20.526 Q 11.246 19.771 11.628 19.176 Q 12.097 18.448 12.406 17.958 A 73.699 73.699 0 0 0 12.58 17.68 A 44.743 44.743 0 0 0 13.835 13.081 Q 14.518 9.872 14.518 7.106 A 18.341 18.341 0 0 0 14.438 5.34 Q 14.263 3.533 13.702 2.329 A 4.427 4.427 0 0 0 13.241 1.543 Q 12.924 1.121 12.544 0.884 A 2.011 2.011 0 0 0 11.458 0.578 A 4.473 4.473 0 0 0 10.058 0.815 Q 9.413 1.027 8.738 1.428 A 11.841 11.841 0 0 0 7.153 2.568 A 15.372 15.372 0 0 0 5.95 3.706 Q 4.59 5.134 3.502 6.868 Q 2.618 8.228 2.125 9.52 Q 1.779 10.428 1.676 11.151 A 4.114 4.114 0 0 0 1.632 11.73 A 2.506 2.506 0 0 0 1.693 12.308 Q 1.878 13.088 2.632 13.229 A 1.96 1.96 0 0 0 2.992 13.26 A 3.193 3.193 0 0 0 3.851 13.136 Q 4.366 12.992 4.93 12.682 A 12.608 12.608 0 0 0 5.885 12.099 Q 6.52 11.673 7.208 11.118 A 2.247 2.247 0 0 1 7.321 11.039 Q 7.498 10.922 7.603 10.915 A 0.195 0.195 0 0 1 7.616 10.914 A 0.098 0.098 0 0 1 7.643 10.918 Q 7.673 10.926 7.681 10.957 A 0.1 0.1 0 0 1 7.684 10.982 A 0.276 0.276 0 0 1 7.67 11.064 Q 7.632 11.185 7.493 11.373 A 2.735 2.735 0 0 1 7.48 11.39 Q 7.038 11.9 6.171 12.512 Q 5.304 13.124 4.369 13.583 A 5.641 5.641 0 0 1 3.752 13.845 Q 3.189 14.042 2.72 14.042 A 2.88 2.88 0 0 1 1.818 13.908 A 2.331 2.331 0 0 1 0.731 13.158 A 3.154 3.154 0 0 1 0.046 11.589 A 4.268 4.268 0 0 1 0 10.948 Q 0 9.962 0.408 9.01 A 12.777 12.777 0 0 1 1.224 7.495 A 14.979 14.979 0 0 1 1.615 6.902 A 20.184 20.184 0 0 1 2.78 5.387 A 23.543 23.543 0 0 1 3.298 4.794 A 18.459 18.459 0 0 1 5.779 2.499 A 17.009 17.009 0 0 1 6.052 2.295 A 15.583 15.583 0 0 1 7.788 1.185 A 12.753 12.753 0 0 1 8.976 0.612 A 8.523 8.523 0 0 1 10.288 0.178 A 6.213 6.213 0 0 1 11.73 0 A 3.598 3.598 0 0 1 13.085 0.243 Q 13.987 0.607 14.556 1.513 A 4.434 4.434 0 0 1 14.807 1.972 A 8.747 8.747 0 0 1 15.43 3.836 Q 15.625 4.72 15.698 5.75 A 18.186 18.186 0 0 1 15.742 7.038 A 25.889 25.889 0 0 1 15.599 9.721 A 28.488 28.488 0 0 1 15.555 10.115 Q 15.368 11.696 15.045 13.056 A 17.847 17.847 0 0 1 14.791 14.014 Q 14.652 14.481 14.501 14.88 A 8.916 8.916 0 0 1 14.314 15.334 A 117.425 117.425 0 0 1 17.326 11.666 A 128.835 128.835 0 0 1 17.782 11.135 Q 19.618 9.01 21.505 7.123 A 50.741 50.741 0 0 1 23.85 4.917 A 42.763 42.763 0 0 1 25.245 3.74 A 24.662 24.662 0 0 1 26.834 2.555 Q 27.694 1.969 28.514 1.533 A 14.624 14.624 0 0 1 28.781 1.394 Q 30.06 0.749 31.152 0.593 A 4.778 4.778 0 0 1 31.824 0.544 Q 32.496 0.544 32.59 1.096 A 1.16 1.16 0 0 1 32.606 1.292 A 1.546 1.546 0 0 1 32.544 1.699 Q 32.432 2.106 32.116 2.656 A 9.352 9.352 0 0 1 31.824 3.128 Q 31.586 3.434 31.382 3.434 A 0.343 0.343 0 0 1 31.288 3.423 Q 31.182 3.392 31.154 3.285 A 0.351 0.351 0 0 1 31.144 3.196 Q 31.144 3.026 31.314 2.754 A 1.513 1.513 0 0 0 31.357 2.685 Q 31.395 2.621 31.441 2.533 A 5.84 5.84 0 0 0 31.484 2.448 Q 31.586 2.244 31.586 2.074 Q 31.586 1.802 31.28 1.666 Q 31.042 1.564 30.668 1.564 Q 29.395 1.564 27.387 2.974 A 21.263 21.263 0 0 0 26.078 3.978 A 59.12 59.12 0 0 0 23.856 5.939 A 67.908 67.908 0 0 0 23.103 6.647 Q 21.59 8.092 20.247 9.571 Q 18.904 11.05 17.833 12.359 Q 17.113 13.239 16.601 13.942 A 18.894 18.894 0 0 0 16.15 14.586 Q 15.81 15.096 15.436 15.691 A 65.997 65.997 0 0 0 15.054 16.308 A 79.101 79.101 0 0 0 14.654 16.966 Z M 175.168 26.894 L 175.44 26.826 A 3.121 3.121 0 0 0 176.415 26.387 A 4.222 4.222 0 0 0 176.987 25.925 Q 177.712 25.234 178.421 24.224 A 15.445 15.445 0 0 0 178.432 24.208 Q 179.384 22.814 180.132 21.199 Q 180.88 19.584 181.424 17.986 A 30.868 30.868 0 0 0 181.848 16.647 Q 182.042 15.978 182.18 15.372 A 17.907 17.907 0 0 0 182.24 15.096 A 0.312 0.312 0 0 0 182.234 15.034 Q 182.212 14.926 182.104 14.926 Q 181.896 14.926 181.482 15.34 A 5.492 5.492 0 0 0 181.356 15.47 Q 181.044 15.809 180.592 16.347 A 53.715 53.715 0 0 0 180.302 16.694 Q 179.656 17.476 178.704 18.564 L 178.16 19.21 A 4.894 4.894 0 0 1 177.732 19.661 Q 177.397 19.969 177.055 20.145 A 3.041 3.041 0 0 1 176.646 20.322 Q 176.316 20.434 176.018 20.434 Q 175.653 20.434 175.396 20.298 A 0.965 0.965 0 0 1 175.338 20.264 A 0.723 0.723 0 0 1 175.078 19.92 Q 175.029 19.792 175.01 19.633 A 1.851 1.851 0 0 1 174.998 19.414 Q 174.998 18.462 175.854 16.305 A 31.683 31.683 0 0 1 175.916 16.15 L 176.358 15.062 A 53.112 53.112 0 0 0 176.677 14.314 A 39.063 39.063 0 0 0 176.953 13.634 Q 177.208 12.988 177.446 12.444 A 1.451 1.451 0 0 1 177.561 12.261 Q 177.727 12.04 177.922 12.008 A 0.413 0.413 0 0 1 177.99 12.002 A 0.453 0.453 0 0 1 178.078 12.01 Q 178.31 12.056 178.159 12.379 A 1.303 1.303 0 0 1 178.126 12.444 A 32.8 32.8 0 0 0 177.518 13.919 Q 176.989 15.303 176.785 16.309 A 7.248 7.248 0 0 0 176.698 16.83 A 0.276 0.276 0 0 0 176.677 16.888 Q 176.67 16.917 176.667 16.952 A 0.687 0.687 0 0 0 176.664 17.017 L 176.664 17.272 A 1.335 1.335 0 0 0 176.69 17.55 Q 176.791 18.02 177.276 18.02 A 1.007 1.007 0 0 0 177.532 17.983 Q 177.894 17.887 178.432 17.544 A 8.188 8.188 0 0 0 178.936 17.143 Q 179.531 16.634 180.302 15.827 Q 181.421 14.658 182.979 12.863 A 142.063 142.063 0 0 0 182.988 12.852 A 11.341 11.341 0 0 0 183.438 12.376 A 10.331 10.331 0 0 0 183.498 12.308 Q 183.736 12.036 183.94 11.798 Q 184.05 11.689 184.138 11.667 A 0.173 0.173 0 0 1 184.178 11.662 A 0.068 0.068 0 0 1 184.237 11.699 Q 184.28 11.769 184.28 11.968 A 2.42 2.42 0 0 1 184.268 12.199 Q 184.256 12.318 184.234 12.456 A 6.076 6.076 0 0 1 184.178 12.75 A 14.262 14.262 0 0 0 184.143 12.904 Q 184.076 13.212 184.076 13.294 A 24.183 24.183 0 0 1 183.451 16.037 A 32.431 32.431 0 0 1 182.58 18.632 Q 181.458 21.454 179.741 23.868 Q 178.024 26.282 175.916 27.506 A 1.951 1.951 0 0 1 175.509 27.699 A 1.506 1.506 0 0 1 175.032 27.778 Q 174.284 27.778 173.808 27.098 A 2.633 2.633 0 0 1 173.346 25.809 A 3.321 3.321 0 0 1 173.332 25.5 A 2.637 2.637 0 0 1 173.38 24.987 A 2.122 2.122 0 0 1 173.502 24.582 Q 173.774 24.004 173.944 24.004 Q 174.057 24.004 174.076 24.145 A 0.471 0.471 0 0 1 174.08 24.208 A 0.76 0.76 0 0 1 174.069 24.331 Q 174.048 24.457 173.988 24.623 A 2.728 2.728 0 0 1 173.978 24.65 A 1.849 1.849 0 0 0 173.949 24.747 Q 173.936 24.794 173.927 24.836 A 1.512 1.512 0 0 0 173.927 24.837 A 0.966 0.966 0 0 0 173.915 24.909 Q 173.911 24.945 173.91 24.978 A 0.563 0.563 0 0 0 173.91 24.99 A 2.315 2.315 0 0 0 174.036 25.729 A 3.138 3.138 0 0 0 174.267 26.248 Q 174.483 26.639 174.767 26.793 A 0.827 0.827 0 0 0 175.168 26.894 Z M 166.464 19.142 L 167.28 17.204 L 166.906 16.966 A 1.786 1.786 0 0 1 166.903 16.965 Q 166.784 16.893 166.707 16.821 A 0.645 0.645 0 0 1 166.651 16.762 A 6.398 6.398 0 0 0 166.614 16.718 Q 166.568 16.664 166.542 16.637 A 0.536 0.536 0 0 0 166.532 16.626 L 166.464 16.49 Q 166.464 16.286 166.974 16.15 A 0.823 0.823 0 0 1 167.093 16.088 Q 167.357 15.97 167.994 15.81 L 169.184 13.328 L 169.796 11.798 Q 170.811 9.262 171.759 7.397 A 30.459 30.459 0 0 1 172.397 6.205 Q 173.638 4.012 175.304 3.23 L 175.338 3.23 A 0.383 0.383 0 0 1 175.428 3.242 Q 175.518 3.264 175.638 3.326 A 1.936 1.936 0 0 1 175.712 3.366 Q 175.95 3.502 176.018 3.706 A 2.112 2.112 0 0 1 176.059 3.92 A 2.435 2.435 0 0 1 176.069 3.995 A 2.814 2.814 0 0 1 176.085 4.229 A 3.267 3.267 0 0 1 176.086 4.318 Q 176.086 5.032 175.763 6.069 A 7.542 7.542 0 0 1 175.342 7.119 Q 175.106 7.606 174.785 8.116 A 12.685 12.685 0 0 1 174.692 8.262 Q 174.012 9.282 172.975 10.489 Q 171.938 11.696 170.544 13.09 Q 169.898 14.246 169.32 15.436 A 13.019 13.019 0 0 0 170.052 15.194 Q 170.697 14.96 171.462 14.62 Q 172.006 14.45 172.618 14.212 A 14.005 14.005 0 0 0 173.369 13.894 A 17.436 17.436 0 0 0 173.91 13.634 A 4.21 4.21 0 0 0 174.086 13.559 Q 174.18 13.516 174.284 13.464 L 174.692 13.26 L 175.848 12.75 L 176.222 12.716 A 0.317 0.317 0 0 1 176.258 12.718 Q 176.37 12.731 176.303 12.834 A 0.356 0.356 0 0 1 176.29 12.852 A 0.482 0.482 0 0 1 176.218 12.953 Q 176.08 13.108 175.731 13.349 A 9.241 9.241 0 0 1 175.508 13.498 Q 174.828 13.94 174.114 14.314 L 172.21 15.164 Q 171.564 15.436 171.19 15.606 A 47.605 47.605 0 0 0 171.028 15.68 Q 170.784 15.792 170.68 15.844 A 9.034 9.034 0 0 0 170.402 16.22 A 7.555 7.555 0 0 0 170.255 16.439 A 6.289 6.289 0 0 0 170.041 16.794 A 5.22 5.22 0 0 0 169.932 17 A 1.397 1.397 0 0 0 170.119 17.422 Q 170.492 18.018 171.537 18.858 A 16.88 16.88 0 0 0 171.768 19.04 Q 172.394 19.541 172.674 19.783 A 8.008 8.008 0 0 1 172.72 19.822 Q 172.992 20.06 172.924 19.992 A 4.165 4.165 0 0 1 173.126 20.15 Q 173.429 20.402 173.494 20.581 A 0.341 0.341 0 0 1 173.502 20.604 L 173.536 20.74 L 173.536 20.774 A 0.128 0.128 0 0 1 173.531 20.813 Q 173.497 20.922 173.23 20.774 A 1.783 1.783 0 0 1 173.025 20.714 Q 172.769 20.624 172.414 20.434 L 171.156 19.788 Q 170.456 19.423 170.015 19.167 A 13.215 13.215 0 0 1 169.915 19.108 A 11.607 11.607 0 0 1 169.4 18.785 A 9.359 9.359 0 0 1 169.082 18.564 Q 168.727 18.306 168.187 17.925 A 148.252 148.252 0 0 0 168.13 17.884 Q 167.487 19.316 166.97 20.472 A 1744.686 1744.686 0 0 0 166.804 20.842 L 166.753 20.995 A 0.443 0.443 0 0 0 166.744 21.026 Q 166.74 21.041 166.738 21.055 A 0.176 0.176 0 0 0 166.736 21.08 A 0.11 0.11 0 0 0 166.768 21.156 Q 166.803 21.195 166.878 21.227 A 0.769 0.769 0 0 0 166.94 21.25 A 0.697 0.697 0 0 1 167.021 21.269 Q 167.108 21.294 167.148 21.337 A 0.133 0.133 0 0 1 167.178 21.386 A 8.229 8.229 0 0 1 167.194 21.451 Q 167.216 21.544 167.229 21.607 A 1.784 1.784 0 0 1 167.236 21.646 Q 167.246 21.698 167.246 21.724 A 0.146 0.146 0 0 1 167.246 21.726 Q 167.246 22.28 166.67 22.677 A 2.234 2.234 0 0 1 166.617 22.712 Q 165.988 23.12 165.24 23.222 Q 165.217 23.222 165.187 23.23 A 0.439 0.439 0 0 0 165.155 23.239 Q 165.104 23.256 165.036 23.256 A 0.538 0.538 0 0 1 164.888 23.238 Q 164.662 23.173 164.662 22.882 A 0.856 0.856 0 0 1 164.678 22.725 Q 164.708 22.567 164.792 22.354 A 3.934 3.934 0 0 1 164.849 22.219 Q 165.036 21.794 165.274 21.369 Q 165.468 21.022 165.549 20.868 A 3.49 3.49 0 0 0 165.58 20.808 A 73.151 73.151 0 0 0 165.757 20.5 Q 165.974 20.122 166.127 19.843 A 22.331 22.331 0 0 0 166.175 19.754 A 9.32 9.32 0 0 0 166.276 19.563 Q 166.368 19.383 166.421 19.255 A 1.69 1.69 0 0 0 166.464 19.142 Z M 171.206 11.391 A 5.156 5.156 0 0 0 171.224 11.373 A 9.067 9.067 0 0 0 171.547 11.047 Q 171.688 10.897 171.841 10.723 A 18.769 18.769 0 0 0 172.159 10.353 A 33.505 33.505 0 0 0 173.081 9.201 A 36.808 36.808 0 0 0 173.213 9.027 A 15.348 15.348 0 0 0 173.577 8.526 Q 173.855 8.126 174.046 7.786 A 15.192 15.192 0 0 0 174.617 6.701 A 12.573 12.573 0 0 0 174.896 6.069 Q 175.165 5.412 175.221 4.998 A 1.511 1.511 0 0 0 175.236 4.794 A 0.8 0.8 0 0 0 175.224 4.647 Q 175.174 4.386 174.93 4.386 A 0.573 0.573 0 0 0 174.69 4.446 Q 174.384 4.588 173.978 5.066 Q 173.4 5.746 172.839 6.732 A 27.535 27.535 0 0 0 172.256 7.809 A 21.879 21.879 0 0 0 171.87 8.602 Q 171.632 9.146 171.377 9.826 A 34.707 34.707 0 0 0 171.17 10.392 Q 171.048 10.737 170.952 11.033 A 21.572 21.572 0 0 1 170.892 11.217 Q 170.799 11.495 170.745 11.626 A 1.097 1.097 0 0 1 170.714 11.696 Q 170.814 11.763 171.206 11.391 Z M 37.332 22.814 L 37.23 22.814 A 1.033 1.033 0 0 1 36.99 22.789 Q 36.566 22.688 36.609 22.176 A 1.34 1.34 0 0 1 36.618 22.1 A 12.145 12.145 0 0 1 37.269 19.678 A 13.457 13.457 0 0 1 37.332 19.516 A 19.431 19.431 0 0 1 37.558 18.978 Q 37.763 18.505 38.029 17.952 A 46.5 46.5 0 0 1 38.477 17.048 Q 38.718 16.573 38.995 16.05 A 76.551 76.551 0 0 1 39.032 15.98 Q 39.338 15.402 39.559 14.96 L 39.916 14.246 Q 40.154 13.77 40.409 13.226 Q 40.664 12.682 40.936 12.036 A 89.107 89.107 0 0 1 41.709 10.391 Q 42.52 8.71 43.163 7.599 A 9.448 9.448 0 0 1 43.824 6.6 Q 44.188 6.122 44.574 5.772 A 4.311 4.311 0 0 1 45.186 5.304 Q 45.254 5.236 45.56 5.287 Q 45.866 5.338 46.155 5.44 A 1.392 1.392 0 0 1 46.284 5.493 Q 46.461 5.576 46.512 5.678 A 1.022 1.022 0 0 1 46.568 5.857 Q 46.61 6.044 46.614 6.31 A 3.685 3.685 0 0 1 46.614 6.358 Q 46.614 7.718 45.356 9.622 Q 44.676 10.642 43.639 11.849 A 40.372 40.372 0 0 1 42.513 13.103 Q 41.905 13.753 41.208 14.45 L 40.596 15.436 A 44.837 44.837 0 0 0 39.922 16.548 Q 39.374 17.484 39.015 18.224 Q 38.454 19.38 38.59 20.264 A 0.731 0.731 0 0 0 38.619 20.339 Q 38.653 20.413 38.694 20.444 A 0.106 0.106 0 0 0 38.76 20.468 Q 38.855 20.468 39.066 20.322 A 2.665 2.665 0 0 0 39.1 20.298 A 4.311 4.311 0 0 0 39.342 20.111 A 5.616 5.616 0 0 0 39.593 19.89 A 3.256 3.256 0 0 0 39.875 19.59 A 4.233 4.233 0 0 0 40.086 19.312 Q 40.256 19.142 40.375 18.938 A 3.166 3.166 0 0 1 40.575 18.635 A 2.81 2.81 0 0 1 40.63 18.564 Q 40.796 18.26 40.962 18.045 A 2.432 2.432 0 0 1 41.038 17.952 Q 41.684 16.864 42.126 16.422 Q 42.748 15.801 43.252 15.696 A 0.98 0.98 0 0 1 43.452 15.674 Q 44.081 15.674 44.579 16.3 A 2.766 2.766 0 0 1 44.659 16.405 A 7.188 7.188 0 0 1 44.997 16.924 Q 45.352 17.519 45.742 18.374 A 23.956 23.956 0 0 1 45.798 18.496 Q 46.208 19.442 46.559 19.979 A 4.378 4.378 0 0 0 46.614 20.06 A 2.281 2.281 0 0 0 46.787 20.271 Q 47.068 20.57 47.328 20.57 Q 47.638 20.57 48.033 20.231 A 2.904 2.904 0 0 0 48.11 20.162 Q 48.518 19.788 48.824 19.754 A 0.391 0.391 0 0 1 48.9 19.886 Q 48.954 20.047 48.848 20.252 A 1.03 1.03 0 0 1 48.79 20.349 Q 48.578 20.668 48.19 20.959 A 3.88 3.88 0 0 1 48.093 21.029 Q 47.634 21.352 47.192 21.556 A 2.404 2.404 0 0 1 47.015 21.63 Q 46.736 21.733 46.556 21.702 A 0.414 0.414 0 0 1 46.512 21.692 A 3.106 3.106 0 0 1 45.716 21.346 A 2.522 2.522 0 0 1 45.033 20.723 Q 44.63 20.19 44.236 19.407 A 14.222 14.222 0 0 1 43.996 18.904 Q 43.85 18.583 43.729 18.324 A 39.86 39.86 0 0 0 43.69 18.241 A 3.341 3.341 0 0 0 43.592 18.049 Q 43.543 17.96 43.494 17.887 A 1.522 1.522 0 0 0 43.418 17.782 Q 43.189 17.455 42.802 17.443 A 0.957 0.957 0 0 0 42.772 17.442 A 0.768 0.768 0 0 0 42.534 17.484 Q 42.33 17.55 42.091 17.724 A 2.746 2.746 0 0 0 42.058 17.748 Q 41.65 18.088 41.242 18.547 A 5.881 5.881 0 0 0 40.818 19.088 A 7.891 7.891 0 0 0 40.46 19.652 A 29.474 29.474 0 0 0 40.348 19.813 Q 40.241 19.968 40.165 20.083 A 7.191 7.191 0 0 0 40.103 20.179 A 3.759 3.759 0 0 1 40.047 20.265 Q 39.993 20.345 39.953 20.394 A 0.591 0.591 0 0 1 39.916 20.434 A 10.195 10.195 0 0 1 39.819 20.567 Q 39.657 20.787 39.389 21.131 Q 39.144 21.447 38.842 21.867 A 40.767 40.767 0 0 0 38.556 22.27 Q 38.431 22.42 38.206 22.551 A 2.403 2.403 0 0 1 38.029 22.644 A 1.83 1.83 0 0 1 37.676 22.772 A 1.449 1.449 0 0 1 37.332 22.814 Z M 41.87 12.751 A 5.156 5.156 0 0 0 41.888 12.733 A 9.067 9.067 0 0 0 42.211 12.407 Q 42.352 12.257 42.505 12.083 A 18.769 18.769 0 0 0 42.823 11.713 A 33.505 33.505 0 0 0 43.745 10.561 A 36.808 36.808 0 0 0 43.877 10.387 A 15.348 15.348 0 0 0 44.241 9.886 Q 44.519 9.486 44.71 9.146 Q 45.764 7.344 45.764 6.766 Q 45.764 6.528 45.594 6.426 A 0.386 0.386 0 0 0 45.347 6.338 Q 45.118 6.338 44.817 6.588 A 2.512 2.512 0 0 0 44.676 6.715 A 6.448 6.448 0 0 0 44.17 7.271 Q 43.926 7.571 43.683 7.931 A 11.795 11.795 0 0 0 43.52 8.177 Q 42.942 9.078 42.534 9.962 Q 42.296 10.506 42.041 11.186 A 34.707 34.707 0 0 0 41.834 11.752 Q 41.712 12.097 41.616 12.393 A 21.572 21.572 0 0 1 41.556 12.577 Q 41.463 12.855 41.409 12.986 A 1.097 1.097 0 0 1 41.378 13.056 Q 41.478 13.123 41.87 12.751 Z M 67.354 9.792 L 67.83 8.942 A 48.757 48.757 0 0 1 68.367 8.004 Q 68.612 7.587 68.834 7.231 A 20.797 20.797 0 0 1 69.258 6.579 Q 69.693 5.939 70.127 5.548 A 3.116 3.116 0 0 1 70.482 5.27 A 14.796 14.796 0 0 1 70.754 5.109 Q 71.271 4.809 71.421 4.795 A 0.148 0.148 0 0 1 71.434 4.794 A 0.367 0.367 0 0 1 71.634 4.859 Q 71.764 4.942 71.894 5.135 A 2.128 2.128 0 0 1 71.978 5.27 A 0.27 0.27 0 0 1 72.003 5.357 Q 72.048 5.702 71.485 6.637 A 12.944 12.944 0 0 1 71.298 6.936 L 70.193 8.636 Q 69.623 9.513 68.865 10.59 A 95.012 95.012 0 0 1 68.612 10.948 A 10.079 10.079 0 0 0 68.513 11.09 Q 68.362 11.309 68.111 11.69 A 83.193 83.193 0 0 0 68.051 11.781 Q 67.66 12.376 67.014 13.328 A 64.088 64.088 0 0 0 66.481 14.126 Q 66.16 14.615 65.892 15.045 Q 65.528 15.631 65.263 16.107 A 15.503 15.503 0 0 0 65.11 16.388 A 27.103 27.103 0 0 0 64.16 18.313 A 30.633 30.633 0 0 0 63.954 18.785 A 11.184 11.184 0 0 0 63.716 19.388 Q 63.41 20.239 63.41 20.774 A 1.201 1.201 0 0 0 63.431 21.01 Q 63.514 21.42 63.92 21.42 A 1.532 1.532 0 0 0 64.39 21.333 Q 65.109 21.097 66.282 20.221 A 19.21 19.21 0 0 0 66.538 20.026 Q 66.73 20.058 66.741 20.211 A 0.264 0.264 0 0 1 66.742 20.23 Q 66.742 20.366 66.402 20.706 A 6.233 6.233 0 0 1 66.151 20.943 Q 66.009 21.07 65.844 21.205 A 11.475 11.475 0 0 1 65.637 21.369 L 64.566 22.202 L 64.022 22.61 Q 63.478 23.052 62.9 23.052 A 0.97 0.97 0 0 1 62.566 22.997 A 0.86 0.86 0 0 1 62.271 22.814 A 0.73 0.73 0 0 1 62.113 22.608 Q 62.03 22.44 62.05 22.236 Q 62.118 20.842 62.577 19.55 Q 63.036 18.258 63.92 16.456 Q 64.022 16.218 64.107 16.031 A 12.899 12.899 0 0 1 64.168 15.898 Q 64.218 15.793 64.26 15.708 A 64.896 64.896 0 0 1 65.595 13.016 A 59.099 59.099 0 0 1 65.79 12.648 Q 66.572 11.186 67.354 9.792 Z M 145.724 9.792 L 146.2 8.942 A 48.757 48.757 0 0 1 146.737 8.004 Q 146.982 7.587 147.204 7.231 A 20.797 20.797 0 0 1 147.628 6.579 Q 148.063 5.939 148.497 5.548 A 3.116 3.116 0 0 1 148.852 5.27 A 14.796 14.796 0 0 1 149.124 5.109 Q 149.641 4.809 149.791 4.795 A 0.148 0.148 0 0 1 149.804 4.794 A 0.367 0.367 0 0 1 150.004 4.859 Q 150.134 4.942 150.264 5.135 A 2.128 2.128 0 0 1 150.348 5.27 A 0.27 0.27 0 0 1 150.373 5.357 Q 150.418 5.702 149.855 6.637 A 12.944 12.944 0 0 1 149.668 6.936 L 148.563 8.636 Q 147.993 9.513 147.235 10.59 A 95.012 95.012 0 0 1 146.982 10.948 A 10.079 10.079 0 0 0 146.883 11.09 Q 146.732 11.309 146.481 11.69 A 83.193 83.193 0 0 0 146.421 11.781 Q 146.03 12.376 145.384 13.328 A 64.088 64.088 0 0 0 144.851 14.126 Q 144.53 14.615 144.262 15.045 Q 143.898 15.631 143.633 16.107 A 15.503 15.503 0 0 0 143.48 16.388 A 27.103 27.103 0 0 0 142.53 18.313 A 30.633 30.633 0 0 0 142.324 18.785 A 11.184 11.184 0 0 0 142.086 19.388 Q 141.78 20.239 141.78 20.774 A 1.201 1.201 0 0 0 141.801 21.01 Q 141.884 21.42 142.29 21.42 A 1.532 1.532 0 0 0 142.76 21.333 Q 143.479 21.097 144.652 20.221 A 19.21 19.21 0 0 0 144.908 20.026 Q 145.1 20.058 145.111 20.211 A 0.264 0.264 0 0 1 145.112 20.23 Q 145.112 20.366 144.772 20.706 A 6.233 6.233 0 0 1 144.521 20.943 Q 144.379 21.07 144.214 21.205 A 11.475 11.475 0 0 1 144.007 21.369 L 142.936 22.202 L 142.392 22.61 Q 141.848 23.052 141.27 23.052 A 0.97 0.97 0 0 1 140.936 22.997 A 0.86 0.86 0 0 1 140.641 22.814 A 0.73 0.73 0 0 1 140.483 22.608 Q 140.4 22.44 140.42 22.236 Q 140.488 20.842 140.947 19.55 Q 141.406 18.258 142.29 16.456 Q 142.392 16.218 142.477 16.031 A 12.899 12.899 0 0 1 142.538 15.898 Q 142.588 15.793 142.63 15.708 A 64.896 64.896 0 0 1 143.965 13.016 A 59.099 59.099 0 0 1 144.16 12.648 Q 144.942 11.186 145.724 9.792 Z M 61.982 14.926 L 62.016 14.246 Q 62.05 13.974 62.067 13.77 A 6.518 6.518 0 0 0 62.074 13.673 Q 62.084 13.532 62.084 13.43 Q 62.084 13.053 61.983 12.879 A 0.293 0.293 0 0 0 61.846 12.75 Q 61.603 12.69 61.496 12.683 A 0.395 0.395 0 0 0 61.472 12.682 A 1.847 1.847 0 0 0 60.816 12.811 Q 60.559 12.908 60.291 13.079 A 4.205 4.205 0 0 0 59.942 13.328 Q 59.126 13.974 58.616 14.824 A 1.191 1.191 0 0 0 58.438 15.272 A 1.636 1.636 0 0 0 58.412 15.572 A 2.543 2.543 0 0 0 58.459 16.04 Q 58.528 16.411 58.701 16.847 A 681.131 681.131 0 0 0 58.836 17.188 Q 59.015 17.64 59.116 17.892 A 92.619 92.619 0 0 0 59.126 17.918 A 20.634 20.634 0 0 1 59.36 18.451 Q 59.536 18.87 59.653 19.21 A 4.133 4.133 0 0 1 59.767 19.599 Q 59.84 19.907 59.84 20.162 A 1.967 1.967 0 0 1 59.837 20.269 Q 59.832 20.368 59.816 20.434 A 0.43 0.43 0 0 1 59.806 20.468 Q 59.971 20.402 60.583 20.273 A 26.827 26.827 0 0 1 60.622 20.264 A 6.256 6.256 0 0 1 61.024 20.183 Q 61.217 20.151 61.387 20.137 A 2.869 2.869 0 0 1 61.608 20.128 A 0.838 0.838 0 0 1 61.686 20.132 Q 61.817 20.144 61.841 20.202 A 0.074 0.074 0 0 1 61.846 20.23 A 0.043 0.043 0 0 1 61.839 20.249 Q 61.808 20.303 61.642 20.468 A 0.414 0.414 0 0 1 61.579 20.518 Q 61.464 20.593 61.201 20.71 A 9.481 9.481 0 0 1 61.013 20.791 A 15.644 15.644 0 0 1 60.519 20.988 Q 60.266 21.084 59.982 21.184 A 26.622 26.622 0 0 1 59.789 21.25 Q 59.092 21.488 58.412 21.692 A 21.453 21.453 0 0 1 57.931 21.831 Q 57.742 21.883 57.573 21.925 A 10.206 10.206 0 0 1 57.256 21.998 A 5.72 5.72 0 0 1 56.351 22.181 Q 55.911 22.235 55.418 22.236 A 9.31 9.31 0 0 1 55.386 22.236 A 4.914 4.914 0 0 1 54.936 22.217 Q 54.664 22.192 54.434 22.134 A 1.4 1.4 0 0 1 54.302 22.092 Q 54.06 21.999 54.06 21.862 A 0.231 0.231 0 0 1 54.184 21.657 Q 54.289 21.593 54.483 21.568 A 1.835 1.835 0 0 1 54.604 21.556 Q 55.074 21.525 55.255 21.465 A 0.513 0.513 0 0 0 55.284 21.454 A 4.289 4.289 0 0 1 55.571 21.401 Q 55.719 21.379 55.885 21.363 A 7.519 7.519 0 0 1 55.998 21.352 Q 56.333 21.292 56.558 21.258 A 8.759 8.759 0 0 1 56.61 21.25 A 4.628 4.628 0 0 0 57.236 21.022 Q 57.933 20.704 58.147 20.235 A 1.062 1.062 0 0 0 58.242 19.788 A 1.739 1.739 0 0 0 58.167 19.308 Q 58.011 18.767 57.528 18.054 Q 57.086 17.408 57.086 16.626 A 3.198 3.198 0 0 1 57.393 15.275 A 4.15 4.15 0 0 1 57.681 14.756 Q 58.276 13.838 59.177 13.141 Q 60.078 12.444 60.996 12.206 Q 61.404 12.104 61.846 12.104 Q 62.266 12.104 62.544 12.222 A 0.889 0.889 0 0 1 62.866 12.444 A 0.492 0.492 0 0 1 62.967 12.602 Q 63.069 12.844 63.07 13.323 A 4.372 4.372 0 0 1 63.07 13.328 A 3.294 3.294 0 0 1 62.951 14.193 A 3.803 3.803 0 0 1 62.9 14.365 A 2.779 2.779 0 0 1 62.711 14.818 A 2.065 2.065 0 0 1 62.424 15.232 Q 62.258 15.398 62.157 15.402 A 0.126 0.126 0 0 1 62.152 15.402 A 0.117 0.117 0 0 1 62.051 15.339 Q 61.982 15.229 61.982 14.926 Z M 165.308 14.926 L 165.342 14.246 Q 165.376 13.974 165.393 13.77 A 6.518 6.518 0 0 0 165.4 13.673 Q 165.41 13.532 165.41 13.43 Q 165.41 13.053 165.309 12.879 A 0.293 0.293 0 0 0 165.172 12.75 Q 164.929 12.69 164.822 12.683 A 0.395 0.395 0 0 0 164.798 12.682 A 1.847 1.847 0 0 0 164.142 12.811 Q 163.885 12.908 163.617 13.079 A 4.205 4.205 0 0 0 163.268 13.328 Q 162.452 13.974 161.942 14.824 A 1.191 1.191 0 0 0 161.764 15.272 A 1.636 1.636 0 0 0 161.738 15.572 A 2.543 2.543 0 0 0 161.785 16.04 Q 161.854 16.411 162.027 16.847 A 681.131 681.131 0 0 0 162.162 17.188 Q 162.341 17.64 162.442 17.892 A 92.619 92.619 0 0 0 162.452 17.918 A 20.634 20.634 0 0 1 162.686 18.451 Q 162.862 18.87 162.979 19.21 A 4.133 4.133 0 0 1 163.093 19.599 Q 163.166 19.907 163.166 20.162 A 1.967 1.967 0 0 1 163.163 20.269 Q 163.158 20.368 163.142 20.434 A 0.43 0.43 0 0 1 163.132 20.468 Q 163.297 20.402 163.909 20.273 A 26.827 26.827 0 0 1 163.948 20.264 A 6.256 6.256 0 0 1 164.35 20.183 Q 164.543 20.151 164.713 20.137 A 2.869 2.869 0 0 1 164.934 20.128 A 0.838 0.838 0 0 1 165.012 20.132 Q 165.143 20.144 165.167 20.202 A 0.074 0.074 0 0 1 165.172 20.23 A 0.043 0.043 0 0 1 165.165 20.249 Q 165.134 20.303 164.968 20.468 A 0.414 0.414 0 0 1 164.905 20.518 Q 164.79 20.593 164.527 20.71 A 9.481 9.481 0 0 1 164.339 20.791 A 15.644 15.644 0 0 1 163.845 20.988 Q 163.592 21.084 163.308 21.184 A 26.622 26.622 0 0 1 163.115 21.25 Q 162.418 21.488 161.738 21.692 A 21.453 21.453 0 0 1 161.257 21.831 Q 161.068 21.883 160.899 21.925 A 10.206 10.206 0 0 1 160.582 21.998 A 5.72 5.72 0 0 1 159.677 22.181 Q 159.237 22.235 158.744 22.236 A 9.31 9.31 0 0 1 158.712 22.236 A 4.914 4.914 0 0 1 158.262 22.217 Q 157.99 22.192 157.76 22.134 A 1.4 1.4 0 0 1 157.628 22.092 Q 157.386 21.999 157.386 21.862 A 0.231 0.231 0 0 1 157.51 21.657 Q 157.615 21.593 157.809 21.568 A 1.835 1.835 0 0 1 157.93 21.556 Q 158.4 21.525 158.581 21.465 A 0.513 0.513 0 0 0 158.61 21.454 A 4.289 4.289 0 0 1 158.897 21.401 Q 159.045 21.379 159.211 21.363 A 7.519 7.519 0 0 1 159.324 21.352 Q 159.659 21.292 159.884 21.258 A 8.759 8.759 0 0 1 159.936 21.25 A 4.628 4.628 0 0 0 160.562 21.022 Q 161.259 20.704 161.473 20.235 A 1.062 1.062 0 0 0 161.568 19.788 A 1.739 1.739 0 0 0 161.493 19.308 Q 161.337 18.767 160.854 18.054 Q 160.412 17.408 160.412 16.626 A 3.198 3.198 0 0 1 160.719 15.275 A 4.15 4.15 0 0 1 161.007 14.756 Q 161.602 13.838 162.503 13.141 Q 163.404 12.444 164.322 12.206 Q 164.73 12.104 165.172 12.104 Q 165.592 12.104 165.87 12.222 A 0.889 0.889 0 0 1 166.192 12.444 A 0.492 0.492 0 0 1 166.293 12.602 Q 166.395 12.844 166.396 13.323 A 4.372 4.372 0 0 1 166.396 13.328 A 3.294 3.294 0 0 1 166.277 14.193 A 3.803 3.803 0 0 1 166.226 14.365 A 2.779 2.779 0 0 1 166.037 14.818 A 2.065 2.065 0 0 1 165.75 15.232 Q 165.584 15.398 165.483 15.402 A 0.126 0.126 0 0 1 165.478 15.402 A 0.117 0.117 0 0 1 165.377 15.339 Q 165.308 15.229 165.308 14.926 Z M 25.432 17.816 L 23.698 19.482 L 22.746 20.4 Q 22.02 21.127 21.478 21.318 A 1.095 1.095 0 0 1 21.114 21.386 A 0.588 0.588 0 0 1 20.883 21.342 A 0.554 0.554 0 0 1 20.672 21.182 A 1.346 1.346 0 0 1 20.378 20.47 A 1.772 1.772 0 0 1 20.366 20.264 A 3.139 3.139 0 0 1 20.471 19.48 Q 20.564 19.119 20.74 18.734 Q 21.114 17.918 21.624 17.153 Q 22.014 16.568 22.345 16.131 A 12.296 12.296 0 0 1 22.542 15.878 Q 23.392 14.83 24.206 14.16 A 7.668 7.668 0 0 1 24.531 13.906 A 3.86 3.86 0 0 1 25.442 13.4 A 3.093 3.093 0 0 1 26.554 13.192 Q 27.132 13.192 27.693 13.396 A 2.699 2.699 0 0 1 28.471 13.843 A 3.331 3.331 0 0 1 28.73 14.076 L 28.764 14.11 A 0.144 0.144 0 0 1 28.74 14.188 Q 28.7 14.251 28.594 14.314 A 1.284 1.284 0 0 1 28.553 14.354 Q 28.532 14.373 28.512 14.389 A 0.521 0.521 0 0 1 28.475 14.416 A 0.683 0.683 0 0 0 28.434 14.446 Q 28.413 14.462 28.396 14.478 A 0.398 0.398 0 0 0 28.39 14.484 Q 28.035 14.839 27.603 15.605 A 12.677 12.677 0 0 0 27.472 15.844 Q 26.962 16.796 26.588 17.833 Q 26.321 18.573 26.245 19.165 A 3.543 3.543 0 0 0 26.214 19.618 Q 26.214 20.253 26.51 20.503 A 0.617 0.617 0 0 0 26.554 20.536 Q 26.724 20.638 26.928 20.638 A 1.025 1.025 0 0 0 27.212 20.593 Q 27.49 20.512 27.859 20.286 A 5.964 5.964 0 0 0 28.152 20.094 Q 28.186 20.06 28.305 19.975 L 28.662 19.72 A 1.796 1.796 0 0 1 28.792 19.631 Q 28.923 19.549 29.026 19.526 A 0.35 0.35 0 0 1 29.104 19.516 A 0.312 0.312 0 0 1 29.166 19.522 Q 29.274 19.544 29.274 19.652 A 0.39 0.39 0 0 1 29.242 19.801 Q 29.192 19.922 29.064 20.063 A 1.827 1.827 0 0 1 29.002 20.128 A 25.518 25.518 0 0 1 28.785 20.307 A 34.776 34.776 0 0 1 28.543 20.502 Q 28.288 20.706 27.948 20.91 A 5.004 5.004 0 0 1 27.097 21.417 A 4.523 4.523 0 0 1 26.894 21.505 Q 26.35 21.726 26.01 21.726 Q 25.942 21.726 25.874 21.709 A 0.649 0.649 0 0 1 25.764 21.671 A 0.74 0.74 0 0 1 25.738 21.658 A 1.37 1.37 0 0 1 25.421 21.444 A 1.036 1.036 0 0 1 25.126 20.978 Q 25.008 20.596 25.043 20.036 A 4.823 4.823 0 0 1 25.058 19.856 A 3.106 3.106 0 0 0 25.093 19.695 Q 25.147 19.414 25.211 18.904 A 9.244 9.244 0 0 1 25.269 18.506 Q 25.338 18.1 25.431 17.821 A 2.649 2.649 0 0 1 25.432 17.816 Z M 22.168 19.55 Q 22.882 19.55 24.82 17.442 A 25.042 25.042 0 0 0 25.305 16.877 A 20.136 20.136 0 0 0 25.738 16.337 A 18.658 18.658 0 0 0 26.312 15.556 A 16.449 16.449 0 0 0 26.486 15.3 A 5.811 5.811 0 0 0 26.676 14.973 Q 27.009 14.348 26.93 14.033 A 0.392 0.392 0 0 0 26.894 13.94 Q 26.799 13.751 26.528 13.737 A 0.856 0.856 0 0 0 26.486 13.736 A 1.002 1.002 0 0 0 26.24 13.771 Q 25.995 13.833 25.671 14.01 A 5.094 5.094 0 0 0 25.466 14.127 A 7.322 7.322 0 0 0 24.739 14.633 A 9.578 9.578 0 0 0 24.157 15.13 A 18.126 18.126 0 0 0 23.247 16.029 A 15.669 15.669 0 0 0 22.95 16.354 Q 22.696 16.678 22.442 17.174 A 9.544 9.544 0 0 0 22.202 17.68 A 6.364 6.364 0 0 0 22.013 18.158 Q 21.828 18.692 21.828 19.074 A 0.987 0.987 0 0 0 21.841 19.242 Q 21.894 19.55 22.168 19.55 Z M 72.828 17.816 L 71.094 19.482 L 70.142 20.4 Q 69.416 21.127 68.874 21.318 A 1.095 1.095 0 0 1 68.51 21.386 A 0.588 0.588 0 0 1 68.279 21.342 A 0.554 0.554 0 0 1 68.068 21.182 A 1.346 1.346 0 0 1 67.774 20.47 A 1.772 1.772 0 0 1 67.762 20.264 A 3.139 3.139 0 0 1 67.867 19.48 Q 67.96 19.119 68.136 18.734 Q 68.51 17.918 69.02 17.153 Q 69.41 16.568 69.741 16.131 A 12.296 12.296 0 0 1 69.938 15.878 Q 70.788 14.83 71.602 14.16 A 7.668 7.668 0 0 1 71.927 13.906 A 3.86 3.86 0 0 1 72.838 13.4 A 3.093 3.093 0 0 1 73.95 13.192 Q 74.528 13.192 75.089 13.396 A 2.699 2.699 0 0 1 75.867 13.843 A 3.331 3.331 0 0 1 76.126 14.076 L 76.16 14.11 A 0.144 0.144 0 0 1 76.136 14.188 Q 76.096 14.251 75.99 14.314 A 1.284 1.284 0 0 1 75.949 14.354 Q 75.928 14.373 75.908 14.389 A 0.521 0.521 0 0 1 75.871 14.416 A 0.683 0.683 0 0 0 75.83 14.446 Q 75.809 14.462 75.792 14.478 A 0.398 0.398 0 0 0 75.786 14.484 Q 75.431 14.839 74.999 15.605 A 12.677 12.677 0 0 0 74.868 15.844 Q 74.358 16.796 73.984 17.833 Q 73.717 18.573 73.641 19.165 A 3.543 3.543 0 0 0 73.61 19.618 Q 73.61 20.253 73.906 20.503 A 0.617 0.617 0 0 0 73.95 20.536 Q 74.12 20.638 74.324 20.638 A 1.025 1.025 0 0 0 74.608 20.593 Q 74.886 20.512 75.255 20.286 A 5.964 5.964 0 0 0 75.548 20.094 Q 75.582 20.06 75.701 19.975 L 76.058 19.72 A 1.796 1.796 0 0 1 76.188 19.631 Q 76.319 19.549 76.422 19.526 A 0.35 0.35 0 0 1 76.5 19.516 A 0.312 0.312 0 0 1 76.562 19.522 Q 76.67 19.544 76.67 19.652 A 0.39 0.39 0 0 1 76.638 19.801 Q 76.588 19.922 76.46 20.063 A 1.827 1.827 0 0 1 76.398 20.128 A 25.518 25.518 0 0 1 76.181 20.307 A 34.776 34.776 0 0 1 75.939 20.502 Q 75.684 20.706 75.344 20.91 A 5.004 5.004 0 0 1 74.493 21.417 A 4.523 4.523 0 0 1 74.29 21.505 Q 73.746 21.726 73.406 21.726 Q 73.338 21.726 73.27 21.709 A 0.649 0.649 0 0 1 73.16 21.671 A 0.74 0.74 0 0 1 73.134 21.658 A 1.37 1.37 0 0 1 72.817 21.444 A 1.036 1.036 0 0 1 72.522 20.978 Q 72.404 20.596 72.439 20.036 A 4.823 4.823 0 0 1 72.454 19.856 A 3.106 3.106 0 0 0 72.489 19.695 Q 72.543 19.414 72.607 18.904 A 9.244 9.244 0 0 1 72.665 18.506 Q 72.734 18.1 72.827 17.821 A 2.649 2.649 0 0 1 72.828 17.816 Z M 69.564 19.55 Q 70.278 19.55 72.216 17.442 A 25.042 25.042 0 0 0 72.701 16.877 A 20.136 20.136 0 0 0 73.134 16.337 A 18.658 18.658 0 0 0 73.708 15.556 A 16.449 16.449 0 0 0 73.882 15.3 A 5.811 5.811 0 0 0 74.072 14.973 Q 74.405 14.348 74.326 14.033 A 0.392 0.392 0 0 0 74.29 13.94 Q 74.195 13.751 73.924 13.737 A 0.856 0.856 0 0 0 73.882 13.736 A 1.002 1.002 0 0 0 73.636 13.771 Q 73.391 13.833 73.067 14.01 A 5.094 5.094 0 0 0 72.862 14.127 A 7.322 7.322 0 0 0 72.135 14.633 A 9.578 9.578 0 0 0 71.553 15.13 A 18.126 18.126 0 0 0 70.643 16.029 A 15.669 15.669 0 0 0 70.346 16.354 Q 70.092 16.678 69.838 17.174 A 9.544 9.544 0 0 0 69.598 17.68 A 6.364 6.364 0 0 0 69.409 18.158 Q 69.224 18.692 69.224 19.074 A 0.987 0.987 0 0 0 69.237 19.242 Q 69.29 19.55 69.564 19.55 Z M 136.034 17.816 L 134.3 19.482 L 133.348 20.4 Q 132.622 21.127 132.08 21.318 A 1.095 1.095 0 0 1 131.716 21.386 A 0.588 0.588 0 0 1 131.485 21.342 A 0.554 0.554 0 0 1 131.274 21.182 A 1.346 1.346 0 0 1 130.98 20.47 A 1.772 1.772 0 0 1 130.968 20.264 A 3.139 3.139 0 0 1 131.073 19.48 Q 131.166 19.119 131.342 18.734 Q 131.716 17.918 132.226 17.153 Q 132.616 16.568 132.947 16.131 A 12.296 12.296 0 0 1 133.144 15.878 Q 133.994 14.83 134.808 14.16 A 7.668 7.668 0 0 1 135.133 13.906 A 3.86 3.86 0 0 1 136.044 13.4 A 3.093 3.093 0 0 1 137.156 13.192 Q 137.734 13.192 138.295 13.396 A 2.699 2.699 0 0 1 139.073 13.843 A 3.331 3.331 0 0 1 139.332 14.076 L 139.366 14.11 A 0.144 0.144 0 0 1 139.342 14.188 Q 139.302 14.251 139.196 14.314 A 1.284 1.284 0 0 1 139.155 14.354 Q 139.134 14.373 139.114 14.389 A 0.521 0.521 0 0 1 139.077 14.416 A 0.683 0.683 0 0 0 139.036 14.446 Q 139.015 14.462 138.998 14.478 A 0.398 0.398 0 0 0 138.992 14.484 Q 138.637 14.839 138.205 15.605 A 12.677 12.677 0 0 0 138.074 15.844 Q 137.564 16.796 137.19 17.833 Q 136.923 18.573 136.847 19.165 A 3.543 3.543 0 0 0 136.816 19.618 Q 136.816 20.253 137.112 20.503 A 0.617 0.617 0 0 0 137.156 20.536 Q 137.326 20.638 137.53 20.638 A 1.025 1.025 0 0 0 137.814 20.593 Q 138.092 20.512 138.461 20.286 A 5.964 5.964 0 0 0 138.754 20.094 Q 138.788 20.06 138.907 19.975 L 139.264 19.72 A 1.796 1.796 0 0 1 139.394 19.631 Q 139.525 19.549 139.628 19.526 A 0.35 0.35 0 0 1 139.706 19.516 A 0.312 0.312 0 0 1 139.768 19.522 Q 139.876 19.544 139.876 19.652 A 0.39 0.39 0 0 1 139.844 19.801 Q 139.794 19.922 139.666 20.063 A 1.827 1.827 0 0 1 139.604 20.128 A 25.518 25.518 0 0 1 139.387 20.307 A 34.776 34.776 0 0 1 139.145 20.502 Q 138.89 20.706 138.55 20.91 A 5.004 5.004 0 0 1 137.699 21.417 A 4.523 4.523 0 0 1 137.496 21.505 Q 136.952 21.726 136.612 21.726 Q 136.544 21.726 136.476 21.709 A 0.649 0.649 0 0 1 136.366 21.671 A 0.74 0.74 0 0 1 136.34 21.658 A 1.37 1.37 0 0 1 136.023 21.444 A 1.036 1.036 0 0 1 135.728 20.978 Q 135.61 20.596 135.645 20.036 A 4.823 4.823 0 0 1 135.66 19.856 A 3.106 3.106 0 0 0 135.695 19.695 Q 135.749 19.414 135.813 18.904 A 9.244 9.244 0 0 1 135.871 18.506 Q 135.94 18.1 136.033 17.821 A 2.649 2.649 0 0 1 136.034 17.816 Z M 132.77 19.55 Q 133.484 19.55 135.422 17.442 A 25.042 25.042 0 0 0 135.907 16.877 A 20.136 20.136 0 0 0 136.34 16.337 A 18.658 18.658 0 0 0 136.914 15.556 A 16.449 16.449 0 0 0 137.088 15.3 A 5.811 5.811 0 0 0 137.278 14.973 Q 137.611 14.348 137.532 14.033 A 0.392 0.392 0 0 0 137.496 13.94 Q 137.401 13.751 137.13 13.737 A 0.856 0.856 0 0 0 137.088 13.736 A 1.002 1.002 0 0 0 136.842 13.771 Q 136.597 13.833 136.273 14.01 A 5.094 5.094 0 0 0 136.068 14.127 A 7.322 7.322 0 0 0 135.341 14.633 A 9.578 9.578 0 0 0 134.759 15.13 A 18.126 18.126 0 0 0 133.849 16.029 A 15.669 15.669 0 0 0 133.552 16.354 Q 133.298 16.678 133.044 17.174 A 9.544 9.544 0 0 0 132.804 17.68 A 6.364 6.364 0 0 0 132.615 18.158 Q 132.43 18.692 132.43 19.074 A 0.987 0.987 0 0 0 132.443 19.242 Q 132.496 19.55 132.77 19.55 Z M 29.937 20.995 A 1.715 1.715 0 0 1 29.556 20.192 A 2.431 2.431 0 0 1 29.512 19.72 A 4.019 4.019 0 0 1 29.962 17.899 A 5.599 5.599 0 0 1 30.532 17 Q 31.348 15.946 32.351 15.079 Q 33.354 14.212 34.323 13.685 Q 35.292 13.158 35.972 13.158 Q 36.611 13.158 36.817 13.69 A 1.109 1.109 0 0 1 36.822 13.702 A 1.248 1.248 0 0 1 36.932 14.041 A 1.731 1.731 0 0 1 36.958 14.348 Q 36.958 15.028 36.448 15.028 A 0.497 0.497 0 0 1 36.139 14.919 A 0.756 0.756 0 0 1 36.023 14.807 A 0.725 0.725 0 0 1 35.886 14.552 Q 35.836 14.39 35.836 14.178 A 0.661 0.661 0 0 0 35.616 14.123 Q 35.294 14.096 34.837 14.329 A 3.125 3.125 0 0 0 34.833 14.331 Q 34.256 14.628 33.637 15.153 A 9.257 9.257 0 0 0 33.524 15.249 Q 32.844 15.844 32.232 16.507 Q 31.821 16.953 31.532 17.314 A 7.802 7.802 0 0 0 31.28 17.646 Q 30.668 18.496 30.668 19.516 A 1.561 1.561 0 0 0 30.704 19.862 A 1.094 1.094 0 0 0 30.906 20.298 A 0.765 0.765 0 0 0 31.358 20.577 A 1.196 1.196 0 0 0 31.62 20.604 Q 32.062 20.604 32.674 20.332 Q 33.116 20.094 33.507 19.89 A 53.406 53.406 0 0 1 33.885 19.695 A 42.75 42.75 0 0 1 34.238 19.516 A 73.571 73.571 0 0 1 34.736 19.238 Q 36.377 18.328 36.617 18.326 A 0.147 0.147 0 0 1 36.658 18.331 Q 36.704 18.344 36.716 18.391 A 0.15 0.15 0 0 1 36.72 18.428 A 0.174 0.174 0 0 1 36.706 18.493 Q 36.671 18.58 36.55 18.7 Q 36.212 19.005 35.469 19.546 A 40.302 40.302 0 0 1 35.462 19.55 Q 34.714 20.094 33.864 20.57 Q 33.014 21.046 32.3 21.284 Q 31.654 21.488 31.178 21.488 Q 30.469 21.488 30.055 21.116 A 1.332 1.332 0 0 1 29.937 20.995 Z M 79.254 19.414 L 79.254 19.72 A 3.895 3.895 0 0 0 79.26 19.948 Q 79.308 20.757 79.725 20.405 A 0.939 0.939 0 0 0 79.73 20.4 A 19.062 19.062 0 0 0 80.631 19.623 A 24.917 24.917 0 0 0 81.566 18.717 Q 82.518 17.748 83.368 16.762 Q 84.01 16.017 84.459 15.408 A 13.009 13.009 0 0 0 84.728 15.028 A 2.961 2.961 0 0 1 85.085 14.561 A 2.28 2.28 0 0 1 85.527 14.195 A 3.48 3.48 0 0 1 85.618 14.14 Q 85.971 13.932 85.92 14.103 A 0.248 0.248 0 0 1 85.918 14.11 A 0.797 0.797 0 0 1 85.875 14.281 Q 85.761 14.607 85.357 15.232 Q 84.904 15.934 84.275 16.773 A 39.945 39.945 0 0 1 84.065 17.051 Q 83.3 18.054 82.501 18.972 A 19.345 19.345 0 0 1 81.974 19.555 Q 81.733 19.811 81.512 20.022 A 8.338 8.338 0 0 1 81.09 20.4 A 6.232 6.232 0 0 1 80.957 20.529 Q 80.806 20.671 80.596 20.855 A 23.063 23.063 0 0 1 80.393 21.029 A 8.769 8.769 0 0 1 79.547 21.668 A 8 8 0 0 1 79.458 21.726 Q 78.982 22.032 78.676 22.032 A 0.5 0.5 0 0 1 78.211 21.724 Q 77.992 21.296 78.059 20.275 A 8.791 8.791 0 0 1 78.064 20.196 A 7.126 7.126 0 0 1 78.108 19.963 Q 78.183 19.587 78.337 18.97 A 48.652 48.652 0 0 1 78.353 18.904 A 28.028 28.028 0 0 1 78.604 17.974 A 38.361 38.361 0 0 1 78.914 16.949 A 63.11 63.11 0 0 1 79.24 15.949 Q 79.405 15.46 79.56 15.028 Q 79.764 14.45 80.291 13.94 A 3.569 3.569 0 0 1 80.528 13.729 Q 80.771 13.533 80.966 13.466 A 0.59 0.59 0 0 1 81.158 13.43 Q 81.335 13.43 81.359 13.636 A 0.595 0.595 0 0 1 81.362 13.702 A 1.052 1.052 0 0 1 81.333 13.93 Q 81.254 14.284 80.954 14.858 A 47.5 47.5 0 0 0 80.712 15.316 Q 80.373 15.966 80.145 16.458 A 16.831 16.831 0 0 0 80.138 16.473 A 9.032 9.032 0 0 0 79.669 17.717 A 8.325 8.325 0 0 0 79.645 17.799 Q 79.458 18.462 79.254 19.414 Z M 126.072 19.414 L 126.072 19.72 A 3.895 3.895 0 0 0 126.078 19.948 Q 126.126 20.757 126.543 20.405 A 0.939 0.939 0 0 0 126.548 20.4 A 19.062 19.062 0 0 0 127.449 19.623 A 24.917 24.917 0 0 0 128.384 18.717 Q 129.336 17.748 130.186 16.762 Q 130.828 16.017 131.277 15.408 A 13.009 13.009 0 0 0 131.546 15.028 A 2.961 2.961 0 0 1 131.903 14.561 A 2.28 2.28 0 0 1 132.345 14.195 A 3.48 3.48 0 0 1 132.436 14.14 Q 132.789 13.932 132.738 14.103 A 0.248 0.248 0 0 1 132.736 14.11 A 0.797 0.797 0 0 1 132.693 14.281 Q 132.579 14.607 132.175 15.232 Q 131.722 15.934 131.093 16.773 A 39.945 39.945 0 0 1 130.883 17.051 Q 130.118 18.054 129.319 18.972 A 19.345 19.345 0 0 1 128.792 19.555 Q 128.551 19.811 128.33 20.022 A 8.338 8.338 0 0 1 127.908 20.4 A 6.232 6.232 0 0 1 127.775 20.529 Q 127.624 20.671 127.414 20.855 A 23.063 23.063 0 0 1 127.211 21.029 A 8.769 8.769 0 0 1 126.365 21.668 A 8 8 0 0 1 126.276 21.726 Q 125.8 22.032 125.494 22.032 A 0.5 0.5 0 0 1 125.029 21.724 Q 124.81 21.296 124.877 20.275 A 8.791 8.791 0 0 1 124.882 20.196 A 7.126 7.126 0 0 1 124.926 19.963 Q 125.001 19.587 125.155 18.97 A 48.652 48.652 0 0 1 125.171 18.904 A 28.028 28.028 0 0 1 125.422 17.974 A 38.361 38.361 0 0 1 125.732 16.949 A 63.11 63.11 0 0 1 126.058 15.949 Q 126.223 15.46 126.378 15.028 Q 126.582 14.45 127.109 13.94 A 3.569 3.569 0 0 1 127.346 13.729 Q 127.589 13.533 127.784 13.466 A 0.59 0.59 0 0 1 127.976 13.43 Q 128.153 13.43 128.177 13.636 A 0.595 0.595 0 0 1 128.18 13.702 A 1.052 1.052 0 0 1 128.151 13.93 Q 128.072 14.284 127.772 14.858 A 47.5 47.5 0 0 0 127.53 15.316 Q 127.191 15.966 126.963 16.458 A 16.831 16.831 0 0 0 126.956 16.473 A 9.032 9.032 0 0 0 126.487 17.717 A 8.325 8.325 0 0 0 126.463 17.799 Q 126.276 18.462 126.072 19.414 Z M 154.428 19.414 L 154.428 19.72 A 3.895 3.895 0 0 0 154.434 19.948 Q 154.482 20.757 154.899 20.405 A 0.939 0.939 0 0 0 154.904 20.4 A 19.062 19.062 0 0 0 155.805 19.623 A 24.917 24.917 0 0 0 156.74 18.717 Q 157.692 17.748 158.542 16.762 Q 159.184 16.017 159.633 15.408 A 13.009 13.009 0 0 0 159.902 15.028 A 2.961 2.961 0 0 1 160.259 14.561 A 2.28 2.28 0 0 1 160.701 14.195 A 3.48 3.48 0 0 1 160.792 14.14 Q 161.145 13.932 161.094 14.103 A 0.248 0.248 0 0 1 161.092 14.11 A 0.797 0.797 0 0 1 161.049 14.281 Q 160.935 14.607 160.531 15.232 Q 160.078 15.934 159.449 16.773 A 39.945 39.945 0 0 1 159.239 17.051 Q 158.474 18.054 157.675 18.972 A 19.345 19.345 0 0 1 157.148 19.555 Q 156.907 19.811 156.686 20.022 A 8.338 8.338 0 0 1 156.264 20.4 A 6.232 6.232 0 0 1 156.131 20.529 Q 155.98 20.671 155.77 20.855 A 23.063 23.063 0 0 1 155.567 21.029 A 8.769 8.769 0 0 1 154.721 21.668 A 8 8 0 0 1 154.632 21.726 Q 154.156 22.032 153.85 22.032 A 0.5 0.5 0 0 1 153.385 21.724 Q 153.166 21.296 153.233 20.275 A 8.791 8.791 0 0 1 153.238 20.196 A 7.126 7.126 0 0 1 153.282 19.963 Q 153.357 19.587 153.511 18.97 A 48.652 48.652 0 0 1 153.527 18.904 A 28.028 28.028 0 0 1 153.778 17.974 A 38.361 38.361 0 0 1 154.088 16.949 A 63.11 63.11 0 0 1 154.414 15.949 Q 154.579 15.46 154.734 15.028 Q 154.938 14.45 155.465 13.94 A 3.569 3.569 0 0 1 155.702 13.729 Q 155.945 13.533 156.14 13.466 A 0.59 0.59 0 0 1 156.332 13.43 Q 156.509 13.43 156.533 13.636 A 0.595 0.595 0 0 1 156.536 13.702 A 1.052 1.052 0 0 1 156.507 13.93 Q 156.428 14.284 156.128 14.858 A 47.5 47.5 0 0 0 155.886 15.316 Q 155.547 15.966 155.319 16.458 A 16.831 16.831 0 0 0 155.312 16.473 A 9.032 9.032 0 0 0 154.843 17.717 A 8.325 8.325 0 0 0 154.819 17.799 Q 154.632 18.462 154.428 19.414 Z M 50.717 21.061 A 2.072 2.072 0 0 1 50.218 20.808 A 2.19 2.19 0 0 1 49.404 19.48 A 3.417 3.417 0 0 1 49.334 18.768 Q 49.334 17.408 50.286 15.878 A 7.88 7.88 0 0 1 51.473 14.419 Q 52.063 13.841 52.819 13.303 A 13.968 13.968 0 0 1 53.176 13.056 Q 53.458 12.859 53.904 12.825 A 2.528 2.528 0 0 1 54.094 12.818 Q 54.842 12.818 55.437 13.226 A 1.342 1.342 0 0 1 55.698 13.455 Q 55.978 13.781 55.907 14.221 A 1.257 1.257 0 0 1 55.896 14.28 A 3.833 3.833 0 0 1 54.908 16.099 A 4.556 4.556 0 0 1 54.859 16.15 A 8.706 8.706 0 0 1 53.381 17.353 A 10.005 10.005 0 0 1 52.989 17.595 Q 51.918 18.224 50.796 18.802 Q 50.762 18.904 50.745 19.006 Q 50.728 19.108 50.728 19.21 Q 50.728 19.686 51.051 20.043 A 1.057 1.057 0 0 0 51.647 20.372 A 1.567 1.567 0 0 0 51.952 20.4 Q 52.327 20.4 52.603 20.303 A 1.313 1.313 0 0 0 52.7 20.264 A 16.562 16.562 0 0 0 53.08 20.117 Q 53.229 20.057 53.359 20 A 7.762 7.762 0 0 0 53.601 19.89 A 3.917 3.917 0 0 0 53.886 19.739 Q 54.137 19.593 54.434 19.38 A 11.545 11.545 0 0 0 54.693 19.189 Q 55.114 18.87 55.726 18.36 A 9.013 9.013 0 0 1 55.815 18.297 Q 56.053 18.127 56.137 18.096 A 0.093 0.093 0 0 1 56.168 18.088 A 0.189 0.189 0 0 1 56.236 18.1 Q 56.359 18.147 56.304 18.394 A 2.988 2.988 0 0 1 56.012 18.78 Q 55.688 19.149 55.165 19.558 A 9.915 9.915 0 0 1 55.131 19.584 Q 54.298 20.23 53.295 20.706 A 5.832 5.832 0 0 1 52.569 20.996 Q 51.986 21.182 51.476 21.182 A 2.308 2.308 0 0 1 50.717 21.061 Z M 51 17.884 A 0.53 0.53 0 0 0 51.147 17.858 Q 51.458 17.765 52.122 17.34 Q 52.972 16.796 53.72 16.15 A 10.09 10.09 0 0 0 54.216 15.664 Q 54.93 14.909 55.004 14.423 A 0.722 0.722 0 0 0 55.012 14.314 Q 55.012 14.144 54.91 14.008 Q 54.808 13.838 54.604 13.838 Q 54.047 13.838 52.834 14.974 A 17.317 17.317 0 0 0 52.428 15.368 A 5.166 5.166 0 0 0 51 17.883 A 2.922 2.922 0 0 0 51 17.884 Z M 147.583 21.061 A 2.072 2.072 0 0 1 147.084 20.808 A 2.19 2.19 0 0 1 146.27 19.48 A 3.417 3.417 0 0 1 146.2 18.768 Q 146.2 17.408 147.152 15.878 A 7.88 7.88 0 0 1 148.339 14.419 Q 148.929 13.841 149.685 13.303 A 13.968 13.968 0 0 1 150.042 13.056 Q 150.324 12.859 150.77 12.825 A 2.528 2.528 0 0 1 150.96 12.818 Q 151.708 12.818 152.303 13.226 A 1.342 1.342 0 0 1 152.564 13.455 Q 152.844 13.781 152.773 14.221 A 1.257 1.257 0 0 1 152.762 14.28 A 3.833 3.833 0 0 1 151.774 16.099 A 4.556 4.556 0 0 1 151.725 16.15 A 8.706 8.706 0 0 1 150.247 17.353 A 10.005 10.005 0 0 1 149.855 17.595 Q 148.784 18.224 147.662 18.802 Q 147.628 18.904 147.611 19.006 Q 147.594 19.108 147.594 19.21 Q 147.594 19.686 147.917 20.043 A 1.057 1.057 0 0 0 148.513 20.372 A 1.567 1.567 0 0 0 148.818 20.4 Q 149.193 20.4 149.469 20.303 A 1.313 1.313 0 0 0 149.566 20.264 A 16.562 16.562 0 0 0 149.946 20.117 Q 150.095 20.057 150.225 20 A 7.762 7.762 0 0 0 150.467 19.89 A 3.917 3.917 0 0 0 150.752 19.739 Q 151.003 19.593 151.3 19.38 A 11.545 11.545 0 0 0 151.559 19.189 Q 151.98 18.87 152.592 18.36 A 9.013 9.013 0 0 1 152.681 18.297 Q 152.919 18.127 153.003 18.096 A 0.093 0.093 0 0 1 153.034 18.088 A 0.189 0.189 0 0 1 153.102 18.1 Q 153.225 18.147 153.17 18.394 A 2.988 2.988 0 0 1 152.878 18.78 Q 152.554 19.149 152.031 19.558 A 9.915 9.915 0 0 1 151.997 19.584 Q 151.164 20.23 150.161 20.706 A 5.832 5.832 0 0 1 149.435 20.996 Q 148.852 21.182 148.342 21.182 A 2.308 2.308 0 0 1 147.583 21.061 Z M 147.866 17.884 A 0.53 0.53 0 0 0 148.013 17.858 Q 148.324 17.765 148.988 17.34 Q 149.838 16.796 150.586 16.15 A 10.09 10.09 0 0 0 151.082 15.664 Q 151.796 14.909 151.87 14.423 A 0.722 0.722 0 0 0 151.878 14.314 Q 151.878 14.144 151.776 14.008 Q 151.674 13.838 151.47 13.838 Q 150.913 13.838 149.7 14.974 A 17.317 17.317 0 0 0 149.294 15.368 A 5.166 5.166 0 0 0 147.866 17.883 A 2.922 2.922 0 0 0 147.866 17.884 Z M 125.528 16.014 L 125.664 16.014 A 0.721 0.721 0 0 1 125.736 16.018 Q 125.998 16.044 125.767 16.286 A 1.167 1.167 0 0 1 125.749 16.303 A 1.209 1.209 0 0 1 125.257 16.598 A 1.642 1.642 0 0 1 124.984 16.66 L 123.828 16.796 A 5.105 5.105 0 0 1 123.337 17.793 Q 123.052 18.247 122.655 18.7 Q 121.822 19.652 120.819 20.349 A 7.377 7.377 0 0 1 120.054 20.819 Q 119.471 21.126 118.932 21.25 Q 118.422 21.386 117.878 21.386 Q 116.552 21.386 116.552 20.196 Q 116.552 20.134 116.566 19.985 A 7.996 7.996 0 0 1 116.569 19.958 Q 116.581 19.842 116.6 19.693 A 13.934 13.934 0 0 1 116.62 19.55 A 6.51 6.51 0 0 1 117.366 17.758 A 8.354 8.354 0 0 1 117.997 16.847 Q 119.034 15.538 120.394 14.552 A 1.535 1.535 0 0 1 120.84 14.312 Q 121.307 14.144 122.026 14.144 A 3.792 3.792 0 0 1 122.598 14.185 A 2.776 2.776 0 0 1 123.165 14.331 A 1.63 1.63 0 0 1 123.494 14.498 A 1.115 1.115 0 0 1 123.862 14.892 A 1.433 1.433 0 0 1 124.056 15.486 A 1.782 1.782 0 0 1 124.066 15.674 A 0.805 0.805 0 0 1 124.065 15.718 Q 124.062 15.761 124.056 15.821 A 3.732 3.732 0 0 1 124.049 15.878 Q 124.033 16.005 124.002 16.162 A 5.908 5.908 0 0 1 123.998 16.184 Q 124.054 16.157 124.166 16.152 A 1.178 1.178 0 0 1 124.219 16.15 Q 124.372 16.15 124.61 16.116 Q 124.848 16.082 125.069 16.048 A 2.993 2.993 0 0 1 125.491 16.015 A 3.303 3.303 0 0 1 125.528 16.014 Z M 123.114 16.898 L 122.298 17 A 35.685 35.685 0 0 1 120.71 17.193 Q 119.922 17.27 119.218 17.297 A 20.453 20.453 0 0 1 118.898 17.306 Q 118.15 18.53 117.98 19.346 Q 117.966 19.524 118.002 19.664 A 0.578 0.578 0 0 0 118.218 19.992 A 0.999 0.999 0 0 0 118.634 20.172 A 1.387 1.387 0 0 0 118.898 20.196 A 1.035 1.035 0 0 0 119.119 20.169 Q 119.42 20.103 119.867 19.873 A 6.747 6.747 0 0 0 120.509 19.495 Q 120.831 19.282 121.165 19.015 A 10.712 10.712 0 0 0 121.176 19.006 A 10.024 10.024 0 0 0 122.297 17.965 A 9.197 9.197 0 0 0 122.4 17.85 A 2.292 2.292 0 0 0 122.559 17.672 Q 122.65 17.561 122.74 17.425 A 11.112 11.112 0 0 1 122.99 17.067 A 12.974 12.974 0 0 1 123.114 16.898 Z M 122.23 16.32 A 6.129 6.129 0 0 0 122.395 16.318 Q 122.542 16.314 122.723 16.303 A 16.882 16.882 0 0 0 122.992 16.285 Q 123.13 16.275 123.283 16.262 A 29.12 29.12 0 0 0 123.386 16.252 A 0.197 0.197 0 0 0 123.4 16.211 Q 123.42 16.129 123.42 15.946 Q 123.42 15.341 122.922 15.102 A 1.137 1.137 0 0 0 122.91 15.096 Q 122.638 14.926 122.23 14.926 A 1.766 1.766 0 0 0 121.602 15.046 A 2.43 2.43 0 0 0 121.193 15.249 Q 120.666 15.572 120.088 16.082 A 3.54 3.54 0 0 0 120.575 16.203 Q 121.081 16.294 121.8 16.315 A 15.201 15.201 0 0 0 122.23 16.32 Z M 17.646 18.326 L 18.02 17.578 A 0.302 0.302 0 0 0 18.052 17.539 Q 18.104 17.466 18.177 17.306 A 4.365 4.365 0 0 0 18.207 17.238 A 5.841 5.841 0 0 1 18.293 17.052 Q 18.385 16.86 18.519 16.608 A 19.657 19.657 0 0 1 18.564 16.524 A 10.705 10.705 0 0 0 18.728 16.182 Q 18.853 15.908 18.938 15.674 A 5.336 5.336 0 0 0 19.079 15.231 A 4.338 4.338 0 0 0 19.142 14.96 A 0.037 0.037 0 0 1 19.148 14.942 Q 19.17 14.907 19.263 14.836 A 1.964 1.964 0 0 1 19.278 14.824 A 1.888 1.888 0 0 1 19.461 14.703 A 1.599 1.599 0 0 1 19.55 14.654 L 19.754 14.62 A 1.205 1.205 0 0 1 19.961 14.637 Q 20.102 14.662 20.213 14.722 A 0.386 0.386 0 0 1 20.275 14.764 Q 20.387 14.857 20.332 14.994 A 131.893 131.893 0 0 0 20.163 15.358 Q 20.03 15.645 19.924 15.878 A 14.442 14.442 0 0 0 19.806 16.145 Q 19.75 16.276 19.704 16.391 A 6.973 6.973 0 0 0 19.652 16.524 L 19.618 16.524 A 20.365 20.365 0 0 0 19.206 17.529 A 16.465 16.465 0 0 0 18.989 18.139 Q 18.734 18.904 18.768 19.584 L 18.802 20.502 A 1.1 1.1 0 0 1 18.714 20.844 A 0.969 0.969 0 0 1 18.564 21.08 A 3.796 3.796 0 0 1 18.469 21.149 Q 18.361 21.225 18.212 21.322 A 12.694 12.694 0 0 1 18.19 21.335 Q 18.012 21.45 17.759 21.573 A 7.309 7.309 0 0 1 17.578 21.658 Q 17.544 21.692 17.408 21.692 A 0.727 0.727 0 0 1 17.015 21.575 A 0.987 0.987 0 0 1 16.898 21.488 Q 16.66 21.284 16.66 20.944 Q 16.66 20.32 17.413 18.788 A 24.427 24.427 0 0 1 17.646 18.326 Z M 184.518 18.326 L 184.892 17.578 A 0.302 0.302 0 0 0 184.924 17.539 Q 184.976 17.466 185.049 17.306 A 4.365 4.365 0 0 0 185.079 17.238 A 5.841 5.841 0 0 1 185.165 17.052 Q 185.257 16.86 185.391 16.608 A 19.657 19.657 0 0 1 185.436 16.524 A 10.705 10.705 0 0 0 185.6 16.182 Q 185.725 15.908 185.81 15.674 A 5.336 5.336 0 0 0 185.951 15.231 A 4.338 4.338 0 0 0 186.014 14.96 A 0.037 0.037 0 0 1 186.02 14.942 Q 186.042 14.907 186.135 14.836 A 1.964 1.964 0 0 1 186.15 14.824 A 1.888 1.888 0 0 1 186.333 14.703 A 1.599 1.599 0 0 1 186.422 14.654 L 186.626 14.62 A 1.205 1.205 0 0 1 186.833 14.637 Q 186.974 14.662 187.085 14.722 A 0.386 0.386 0 0 1 187.147 14.764 Q 187.259 14.857 187.204 14.994 A 131.893 131.893 0 0 0 187.035 15.358 Q 186.902 15.645 186.796 15.878 A 14.442 14.442 0 0 0 186.678 16.145 Q 186.622 16.276 186.576 16.391 A 6.973 6.973 0 0 0 186.524 16.524 L 186.49 16.524 A 20.365 20.365 0 0 0 186.078 17.529 A 16.465 16.465 0 0 0 185.861 18.139 Q 185.606 18.904 185.64 19.584 L 185.674 20.502 A 1.1 1.1 0 0 1 185.586 20.844 A 0.969 0.969 0 0 1 185.436 21.08 A 3.796 3.796 0 0 1 185.341 21.149 Q 185.233 21.225 185.084 21.322 A 12.694 12.694 0 0 1 185.062 21.335 Q 184.884 21.45 184.631 21.573 A 7.309 7.309 0 0 1 184.45 21.658 Q 184.416 21.692 184.28 21.692 A 0.727 0.727 0 0 1 183.887 21.575 A 0.987 0.987 0 0 1 183.77 21.488 Q 183.532 21.284 183.532 20.944 Q 183.532 20.32 184.285 18.788 A 24.427 24.427 0 0 1 184.518 18.326 Z M 20.434 13.362 Q 19.992 13.362 19.992 13.158 A 0.338 0.338 0 0 1 20.011 13.054 Q 20.061 12.902 20.243 12.67 A 3.221 3.221 0 0 1 20.247 12.665 Q 20.502 12.342 20.842 12.104 A 22.174 22.174 0 0 0 21.278 11.82 Q 21.723 11.522 22.015 11.288 Q 22.44 10.948 23.052 10.132 Q 23.084 10.195 23.086 10.376 A 2.274 2.274 0 0 1 23.086 10.404 A 1.404 1.404 0 0 1 23.04 10.746 Q 22.96 11.062 22.743 11.45 A 4.729 4.729 0 0 1 22.729 11.475 A 7.146 7.146 0 0 1 22.066 12.452 A 6.487 6.487 0 0 1 21.93 12.614 A 4.33 4.33 0 0 1 21.689 12.872 Q 21.392 13.163 21.148 13.26 Q 20.861 13.356 20.485 13.362 A 3.189 3.189 0 0 1 20.434 13.362 Z M 187.306 13.362 Q 186.864 13.362 186.864 13.158 A 0.338 0.338 0 0 1 186.883 13.054 Q 186.933 12.902 187.115 12.67 A 3.221 3.221 0 0 1 187.119 12.665 Q 187.374 12.342 187.714 12.104 A 22.174 22.174 0 0 0 188.15 11.82 Q 188.595 11.522 188.887 11.288 Q 189.312 10.948 189.924 10.132 Q 189.956 10.195 189.958 10.376 A 2.274 2.274 0 0 1 189.958 10.404 A 1.404 1.404 0 0 1 189.912 10.746 Q 189.832 11.062 189.615 11.45 A 4.729 4.729 0 0 1 189.601 11.475 A 7.146 7.146 0 0 1 188.938 12.452 A 6.487 6.487 0 0 1 188.802 12.614 A 4.33 4.33 0 0 1 188.561 12.872 Q 188.264 13.163 188.02 13.26 Q 187.733 13.356 187.357 13.362 A 3.189 3.189 0 0 1 187.306 13.362 Z" vector-effect="non-scaling-stroke"/></g></svg>